<svg width="112" height="112" viewBox="0 0 112 112" fill="none" xmlns="http://www.w3.org/2000/svg">
<circle cx="56" cy="56" r="56" fill="#F2F2F2"/>
<path d="M65.8 44.8C65.8 50.9856 61.4124 56 56 56C50.5876 56 46.2 50.9856 46.2 44.8C46.2 38.6144 50.5876 33.6 56 33.6C61.4124 33.6 65.8 38.6144 65.8 44.8Z" fill="#8E8E8E"/>
<path d="M64.8004 61.6H67.2C73.3852 61.6 78.4 66.6148 78.4 72.8V78.4H33.6V72.8C33.6 66.6148 38.6148 61.6 44.8 61.6H47.1996C49.7756 63.3668 52.7772 64.4 56 64.4C59.2228 64.4 62.2244 63.3668 64.8004 61.6Z" fill="#8E8E8E"/>
</svg>
