<?xml version="1.0" encoding="UTF-8"?>
<svg xmlns="http://www.w3.org/2000/svg" xmlns:xlink="http://www.w3.org/1999/xlink" width="24px" height="24px" viewBox="0 0 24 24" version="1.1">
<g id="surface1">
<path style=" stroke:none;fill-rule:nonzero;fill:rgb(0%,0%,0%);fill-opacity:1;" d="M 14.875 2.9375 C 14.636719 2.929688 14.394531 2.957031 14.15625 3.019531 C 13.519531 3.1875 12.992188 3.601562 12.675781 4.164062 L 12 5.382812 C 11.851562 5.644531 11.945312 6 12.207031 6.148438 L 15.449219 8.023438 C 15.542969 8.082031 15.636719 8.101562 15.730469 8.101562 C 15.789062 8.101562 15.824219 8.101562 15.882812 8.082031 C 16.03125 8.042969 16.144531 7.949219 16.21875 7.820312 L 16.914062 6.601562 C 17.230469 6.039062 17.324219 5.382812 17.15625 4.742188 C 16.988281 4.105469 16.574219 3.582031 16.011719 3.261719 C 15.660156 3.0625 15.273438 2.953125 14.875 2.9375 Z M 11.269531 7.148438 C 11.085938 7.164062 10.914062 7.261719 10.820312 7.425781 L 5.15625 17.25 C 4.519531 18.335938 4.164062 19.554688 4.085938 20.792969 L 3.9375 23.210938 C 3.917969 23.417969 4.03125 23.625 4.21875 23.738281 C 4.3125 23.792969 4.40625 23.8125 4.5 23.8125 C 4.613281 23.8125 4.726562 23.773438 4.820312 23.71875 L 6.84375 22.386719 C 7.875 21.695312 8.757812 20.773438 9.375 19.6875 L 15.054688 9.863281 C 15.207031 9.601562 15.113281 9.242188 14.851562 9.09375 C 14.585938 8.945312 14.230469 9.039062 14.082031 9.300781 L 8.398438 19.125 C 7.855469 20.042969 7.105469 20.851562 6.207031 21.449219 L 5.117188 22.164062 L 5.195312 20.867188 C 5.25 19.800781 5.570312 18.75 6.113281 17.8125 L 11.792969 7.988281 C 11.945312 7.726562 11.851562 7.367188 11.585938 7.21875 C 11.488281 7.164062 11.378906 7.140625 11.269531 7.148438 Z M 9.1875 22.6875 C 8.867188 22.6875 8.625 22.929688 8.625 23.25 C 8.625 23.570312 8.867188 23.8125 9.1875 23.8125 L 16.6875 23.8125 C 17.007812 23.8125 17.25 23.570312 17.25 23.25 C 17.25 22.929688 17.007812 22.6875 16.6875 22.6875 Z M 19.5 22.6875 C 19.1875 22.6875 18.9375 22.9375 18.9375 23.25 C 18.9375 23.5625 19.1875 23.8125 19.5 23.8125 C 19.8125 23.8125 20.0625 23.5625 20.0625 23.25 C 20.0625 22.9375 19.8125 22.6875 19.5 22.6875 Z M 19.5 22.6875 "/>
</g>
</svg>
