<?xml version="1.0" encoding="utf-8"?>
<!-- Generator: Adobe Illustrator 27.7.0, SVG Export Plug-In . SVG Version: 6.00 Build 0)  -->
<svg version="1.1" id="Layer_1" xmlns="http://www.w3.org/2000/svg" xmlns:xlink="http://www.w3.org/1999/xlink" x="0px" y="0px"
	 viewBox="0 0 256.3 8.5" style="enable-background:new 0 0 256.3 8.5;" xml:space="preserve">
<style type="text/css">
	.st0{fill:#88868B;}
	.st1{fill:#FFFFFF;}
</style>
<g>
	<rect y="4.1" class="st0" width="0" height="0.3"/>
	<polygon class="st1" points="240,3.6 235,3.6 235,4.1 218.8,4.1 218.8,3.6 210.7,3.6 210.7,4.1 208.1,4.1 208.1,3.6 196.2,3.6 
		196.2,4.1 186.1,4.1 186.1,3.6 182,3.6 182,4.1 180.1,4.1 180.1,3.6 136.3,3.6 136.3,4.1 124.2,4.1 124.2,3.6 123.1,3.6 123.1,4.1 
		121.8,4.1 121.8,3.6 113.6,3.6 113.6,4.1 99.1,4.1 99.1,3.6 85.9,3.6 85.9,4.1 83,4.1 83,3.6 74.8,3.6 74.8,4.1 70.3,4.1 70.3,3.6 
		44.1,3.6 44.1,4.1 39,4.1 39,3.6 37.9,3.6 37.9,4.1 35.4,4.1 35.4,3.6 31.2,3.6 31.2,4.1 17.2,4.1 17.2,3.6 5.4,3.6 5.4,4.1 0,4.1 
		0,4.4 5.4,4.4 5.4,4.9 17.2,4.9 17.2,4.4 31.2,4.4 31.2,4.9 35.4,4.9 35.4,4.4 37.9,4.4 37.9,4.9 39,4.9 39,4.4 44.1,4.4 44.1,4.9 
		70.3,4.9 70.3,4.4 74.8,4.4 74.8,4.9 83,4.9 83,4.4 85.9,4.4 85.9,4.9 99.1,4.9 99.1,4.4 113.6,4.4 113.6,4.9 121.8,4.9 121.8,4.4 
		123.1,4.4 123.1,4.9 124.2,4.9 124.2,4.4 136.3,4.4 136.3,4.9 180.1,4.9 180.1,4.4 182,4.4 182,4.9 186.1,4.9 186.1,4.4 196.2,4.4 
		196.2,4.9 208.1,4.9 208.1,4.4 210.7,4.4 210.7,4.9 218.8,4.9 218.8,4.4 235,4.4 235,4.9 240,4.9 240,4.4 256.3,4.4 256.3,4.1 
		240,4.1 	"/>
</g>
</svg>
