<?xml version="1.0" encoding="utf-8"?>
<!-- Generator: Adobe Illustrator 27.7.0, SVG Export Plug-In . SVG Version: 6.00 Build 0)  -->
<svg version="1.1" id="Layer_1" xmlns="http://www.w3.org/2000/svg" xmlns:xlink="http://www.w3.org/1999/xlink" x="0px" y="0px"
	 viewBox="0 0 36.3 14.6" style="enable-background:new 0 0 36.3 14.6;" xml:space="preserve">
<style type="text/css">
	.st0{fill:#FFFFFF;}
</style>
<g>
	<polygon class="st0" points="36.3,4.5 36.3,0 35.4,0 20.8,14.6 26.3,14.6 36.3,4.6 	"/>
	<polygon class="st0" points="36.3,11.8 36.3,6.4 28.1,14.6 33.6,14.6 36.3,11.8 	"/>
	<polygon class="st0" points="35.4,14.6 36.3,14.6 36.3,13.7 	"/>
	<polygon class="st0" points="13.6,0 0,13.6 0,14.6 4.4,14.6 19.1,0 	"/>
	<polygon class="st0" points="28.2,0 13.5,14.6 19,14.6 33.6,0 	"/>
	<polygon class="st0" points="20.9,0 6.3,14.6 11.7,14.6 26.3,0 	"/>
	<polygon class="st0" points="0,0 0,4.5 4.5,0 	"/>
	<polygon class="st0" points="6.3,0 0,6.3 0,11.8 11.8,0 	"/>
	<polygon class="st0" points="4.5,0 0,4.5 0,6.3 6.3,0 	"/>
	<polygon class="st0" points="11.8,0 0,11.8 0,13.6 13.6,0 	"/>
	<polygon class="st0" points="19.1,0 4.4,14.6 6.3,14.6 20.9,0 	"/>
	<polygon class="st0" points="26.3,0 11.7,14.6 13.5,14.6 28.2,0 	"/>
	<polygon class="st0" points="33.6,0 19,14.6 20.8,14.6 35.4,0 	"/>
	<polygon class="st0" points="36.3,6.3 36.3,4.6 26.3,14.6 28.1,14.6 36.3,6.4 	"/>
	<polygon class="st0" points="36.3,13.6 36.3,11.8 33.6,14.6 35.4,14.6 36.3,13.7 	"/>
</g>
</svg>
