<?xml version="1.0" encoding="utf-8"?>
<!-- Generator: Adobe Illustrator 27.7.0, SVG Export Plug-In . SVG Version: 6.00 Build 0)  -->
<svg version="1.1" id="Layer_1" xmlns="http://www.w3.org/2000/svg" xmlns:xlink="http://www.w3.org/1999/xlink" x="0px" y="0px"
	 viewBox="0 0 83.5 83.5" style="enable-background:new 0 0 83.5 83.5;" xml:space="preserve">
<style type="text/css">
	.st0{fill:#FFFFFF;}
</style>
<g id="_x31_3">
	<g>
		<g>
			<path class="st0" d="M83.3,77.6C83.3,77.6,83.3,77.6,83.3,77.6c-0.2,0-0.4,0-0.5-0.1c-0.4,0-0.7-0.1-1.1-0.1
				c-11.1,0-22.2,0-33.2,0h-6.6c-0.1,0-0.2-0.1-0.2-0.2c0-0.1,0.1-0.2,0.2-0.2h6.6c11.1,0,22.2,0,33.2,0c0.4,0,0.8,0,1.1,0.1
				c0.2,0,0.3,0,0.5,0.1c0.1,0,0.2,0.1,0.2,0.3C83.5,77.5,83.4,77.6,83.3,77.6z"/>
		</g>
		<g>
			<path class="st0" d="M83.3,80.9C83.3,80.9,83.3,80.9,83.3,80.9c-0.2,0-0.4,0-0.5-0.1c-0.4,0-0.7-0.1-1.1-0.1
				c-11.1,0-22.2,0-33.2,0h-6.6c-0.1,0-0.2-0.1-0.2-0.2c0-0.1,0.1-0.2,0.2-0.2h6.6c11.1,0,22.2,0,33.2,0c0.4,0,0.8,0,1.1,0.1
				c0.2,0,0.3,0,0.5,0.1c0.1,0,0.2,0.1,0.2,0.3C83.5,80.8,83.4,80.9,83.3,80.9z"/>
		</g>
		<g>
			<path class="st0" d="M62.5,44.8c-6.5,0-13,0-19.6,0c-0.3,0-0.6,0-0.8-0.1c-0.1,0-0.2,0-0.4-0.1c-0.1,0-0.2-0.1-0.2-0.3
				c0-0.1,0.1-0.2,0.3-0.2c0.1,0,0.3,0,0.4,0.1c0.3,0,0.5,0.1,0.8,0.1c13,0,26.1,0,39.1,0c0.2,0,0.5,0,0.8-0.1c0.1,0,0.3,0,0.4-0.1
				c0.1,0,0.3,0.1,0.3,0.2c0,0.1-0.1,0.3-0.2,0.3c-0.1,0-0.2,0-0.4,0.1c-0.3,0-0.6,0.1-0.8,0.1C75.6,44.8,69,44.8,62.5,44.8z"/>
		</g>
		<g>
			<path class="st0" d="M62.5,48.1c-6.5,0-13,0-19.6,0c-0.3,0-0.6,0-0.8-0.1c-0.1,0-0.2,0-0.4-0.1c-0.1,0-0.2-0.1-0.2-0.3
				c0-0.1,0.1-0.2,0.3-0.2c0.1,0,0.3,0,0.4,0.1c0.3,0,0.5,0.1,0.8,0.1c13,0,26.1,0,39.1,0c0.2,0,0.5,0,0.8-0.1c0.1,0,0.3,0,0.4-0.1
				c0.1,0,0.3,0.1,0.3,0.2s-0.1,0.3-0.2,0.3c-0.1,0-0.2,0-0.4,0.1c-0.3,0-0.6,0.1-0.8,0.1C75.6,48.1,69,48.1,62.5,48.1z"/>
		</g>
		<g>
			<path class="st0" d="M83.3,51.4H41.8c-0.1,0-0.2-0.1-0.2-0.2s0.1-0.2,0.2-0.2h41.5c0.1,0,0.2,0.1,0.2,0.2S83.4,51.4,83.3,51.4z"
				/>
		</g>
		<g>
			<path class="st0" d="M83.3,54.6H41.8c-0.1,0-0.2-0.1-0.2-0.2s0.1-0.2,0.2-0.2h41.5c0.1,0,0.2,0.1,0.2,0.2S83.4,54.6,83.3,54.6z"
				/>
		</g>
		<g>
			<path class="st0" d="M83.3,57.9H41.8c-0.1,0-0.2-0.1-0.2-0.2s0.1-0.2,0.2-0.2h41.5c0.1,0,0.2,0.1,0.2,0.2S83.4,57.9,83.3,57.9z"
				/>
		</g>
		<g>
			<path class="st0" d="M83.3,61.1H41.8c-0.1,0-0.2-0.1-0.2-0.2c0-0.1,0.1-0.2,0.2-0.2h41.5c0.1,0,0.2,0.1,0.2,0.2
				C83.5,61,83.4,61.1,83.3,61.1z"/>
		</g>
		<g>
			<path class="st0" d="M83.3,64.4H41.8c-0.1,0-0.2-0.1-0.2-0.2c0-0.1,0.1-0.2,0.2-0.2h41.5c0.1,0,0.2,0.1,0.2,0.2
				C83.5,64.3,83.4,64.4,83.3,64.4z"/>
		</g>
		<g>
			<path class="st0" d="M83.3,67.7H41.8c-0.1,0-0.2-0.1-0.2-0.2c0-0.1,0.1-0.2,0.2-0.2h41.5c0.1,0,0.2,0.1,0.2,0.2
				C83.5,67.6,83.4,67.7,83.3,67.7z"/>
		</g>
		<g>
			<path class="st0" d="M83.3,70.9H41.8c-0.1,0-0.2-0.1-0.2-0.2c0-0.1,0.1-0.2,0.2-0.2h41.5c0.1,0,0.2,0.1,0.2,0.2
				C83.5,70.8,83.4,70.9,83.3,70.9z"/>
		</g>
		<g>
			<path class="st0" d="M83.3,74.2H41.8c-0.1,0-0.2-0.1-0.2-0.2s0.1-0.2,0.2-0.2h41.5c0.1,0,0.2,0.1,0.2,0.2S83.4,74.2,83.3,74.2z"
				/>
		</g>
	</g>
	<g>
		<g>
			<path class="st0" d="M44.6,41.7c-0.1,0-0.2-0.1-0.2-0.2V0.2c0-0.1,0.1-0.2,0.2-0.2s0.2,0.1,0.2,0.2v41.2
				C44.8,41.6,44.7,41.7,44.6,41.7z"/>
		</g>
		<g>
			<path class="st0" d="M47.8,41.7c-0.1,0-0.2-0.1-0.2-0.2V0.2c0-0.1,0.1-0.2,0.2-0.2s0.2,0.1,0.2,0.2v41.2
				C48.1,41.6,48,41.7,47.8,41.7z"/>
		</g>
		<g>
			<path class="st0" d="M51.1,41.7c-0.1,0-0.2-0.1-0.2-0.2V0.2C50.9,0.1,51,0,51.1,0s0.2,0.1,0.2,0.2v41.2
				C51.4,41.6,51.2,41.7,51.1,41.7z"/>
		</g>
		<g>
			<path class="st0" d="M54.4,41.7c-0.1,0-0.2-0.1-0.2-0.2V0.2c0-0.1,0.1-0.2,0.2-0.2s0.2,0.1,0.2,0.2v41.2
				C54.6,41.6,54.5,41.7,54.4,41.7z"/>
		</g>
		<g>
			<path class="st0" d="M57.6,41.7c-0.1,0-0.2-0.1-0.2-0.2V0.2c0-0.1,0.1-0.2,0.2-0.2s0.2,0.1,0.2,0.2v41.2
				C57.9,41.6,57.8,41.7,57.6,41.7z"/>
		</g>
		<g>
			<path class="st0" d="M60.9,41.7c-0.1,0-0.2-0.1-0.2-0.2V0.2c0-0.1,0.1-0.2,0.2-0.2c0.1,0,0.2,0.1,0.2,0.2v41.2
				C61.1,41.6,61,41.7,60.9,41.7z"/>
		</g>
		<g>
			<path class="st0" d="M64.2,41.7c-0.1,0-0.2-0.1-0.2-0.2V0.2C63.9,0.1,64,0,64.2,0c0.1,0,0.2,0.1,0.2,0.2v41.2
				C64.4,41.6,64.3,41.7,64.2,41.7z"/>
		</g>
		<g>
			<path class="st0" d="M67.4,41.7c-0.1,0-0.2-0.1-0.2-0.2V0.2c0-0.1,0.1-0.2,0.2-0.2c0.1,0,0.2,0.1,0.2,0.2v41.2
				C67.7,41.6,67.6,41.7,67.4,41.7z"/>
		</g>
		<g>
			<path class="st0" d="M70.7,41.7c-0.1,0-0.2-0.1-0.2-0.2V0.2c0-0.1,0.1-0.2,0.2-0.2c0.1,0,0.2,0.1,0.2,0.2v41.2
				C70.9,41.6,70.8,41.7,70.7,41.7z"/>
		</g>
		<g>
			<path class="st0" d="M73.9,41.7c-0.1,0-0.2-0.1-0.2-0.2V0.2c0-0.1,0.1-0.2,0.2-0.2s0.2,0.1,0.2,0.2v41.2
				C74.2,41.6,74.1,41.7,73.9,41.7z"/>
		</g>
		<g>
			<path class="st0" d="M77.3,41.7c-0.1,0-0.2-0.1-0.2-0.2V0.2c0-0.1,0.1-0.2,0.2-0.2c0.1,0,0.2,0.1,0.2,0.2v41.2
				C77.6,41.6,77.5,41.7,77.3,41.7z"/>
		</g>
		<g>
			<path class="st0" d="M80.8,41.7c-0.1,0-0.2-0.1-0.2-0.2V0.2c0-0.1,0.1-0.2,0.2-0.2C80.9,0,81,0.1,81,0.2v41.2
				C81,41.6,80.9,41.7,80.8,41.7z"/>
		</g>
	</g>
	<g>
		<g>
			<path class="st0" d="M41.5,3H0.2C0.1,3,0,2.9,0,2.8c0-0.1,0.1-0.2,0.2-0.2h41.2c0.1,0,0.2,0.1,0.2,0.2C41.7,2.9,41.6,3,41.5,3z"
				/>
		</g>
		<g>
			<path class="st0" d="M41.5,6.3H0.2C0.1,6.3,0,6.2,0,6s0.1-0.2,0.2-0.2h41.2c0.1,0,0.2,0.1,0.2,0.2S41.6,6.3,41.5,6.3z"/>
		</g>
		<g>
			<path class="st0" d="M41.5,9.5H0.2C0.1,9.5,0,9.4,0,9.3S0.1,9,0.2,9h41.2c0.1,0,0.2,0.1,0.2,0.2S41.6,9.5,41.5,9.5z"/>
		</g>
		<g>
			<path class="st0" d="M41.5,12.8H0.2c-0.1,0-0.2-0.1-0.2-0.2s0.1-0.2,0.2-0.2h41.2c0.1,0,0.2,0.1,0.2,0.2S41.6,12.8,41.5,12.8z"/>
		</g>
		<g>
			<path class="st0" d="M41.5,16.1H0.2C0.1,16.1,0,16,0,15.8s0.1-0.2,0.2-0.2h41.2c0.1,0,0.2,0.1,0.2,0.2S41.6,16.1,41.5,16.1z"/>
		</g>
		<g>
			<path class="st0" d="M41.5,19.3H0.2c-0.1,0-0.2-0.1-0.2-0.2c0-0.1,0.1-0.2,0.2-0.2h41.2c0.1,0,0.2,0.1,0.2,0.2
				C41.7,19.2,41.6,19.3,41.5,19.3z"/>
		</g>
		<g>
			<path class="st0" d="M41.5,22.6H0.2c-0.1,0-0.2-0.1-0.2-0.2c0-0.1,0.1-0.2,0.2-0.2h41.2c0.1,0,0.2,0.1,0.2,0.2
				C41.7,22.5,41.6,22.6,41.5,22.6z"/>
		</g>
		<g>
			<path class="st0" d="M41.5,25.9H0.2c-0.1,0-0.2-0.1-0.2-0.2c0-0.1,0.1-0.2,0.2-0.2h41.2c0.1,0,0.2,0.1,0.2,0.2
				C41.7,25.7,41.6,25.9,41.5,25.9z"/>
		</g>
		<g>
			<path class="st0" d="M41.5,29.1H0.2C0.1,29.1,0,29,0,28.9c0-0.1,0.1-0.2,0.2-0.2h41.2c0.1,0,0.2,0.1,0.2,0.2
				C41.7,29,41.6,29.1,41.5,29.1z"/>
		</g>
		<g>
			<path class="st0" d="M41.5,32.4H0.2c-0.1,0-0.2-0.1-0.2-0.2c0-0.1,0.1-0.2,0.2-0.2h41.2c0.1,0,0.2,0.1,0.2,0.2
				C41.7,32.3,41.6,32.4,41.5,32.4z"/>
		</g>
		<g>
			<path class="st0" d="M41.5,35.6H0.2c-0.1,0-0.2-0.1-0.2-0.2c0-0.1,0.1-0.2,0.2-0.2h41.2c0.1,0,0.2,0.1,0.2,0.2
				C41.7,35.5,41.6,35.6,41.5,35.6z"/>
		</g>
		<g>
			<path class="st0" d="M41.5,38.9H0.2c-0.1,0-0.2-0.1-0.2-0.2c0-0.1,0.1-0.2,0.2-0.2h41.2c0.1,0,0.2,0.1,0.2,0.2
				C41.7,38.8,41.6,38.9,41.5,38.9z"/>
		</g>
	</g>
	<g>
		<g>
			<path class="st0" d="M35.5,83.5c-0.1,0-0.2-0.1-0.2-0.2v-5.5c0-11.5,0-23,0-34.6c0-0.4,0.1-0.7,0.2-1.1c0-0.2,0.1-0.3,0.1-0.5
				c0-0.1,0.2-0.2,0.3-0.2c0.1,0,0.2,0.2,0.2,0.3c0,0.2-0.1,0.3-0.1,0.5c-0.1,0.3-0.2,0.6-0.2,0.9c0,11.5,0,23,0,34.6v5.5
				C35.8,83.4,35.7,83.5,35.5,83.5z"/>
		</g>
		<g>
			<path class="st0" d="M2.6,83.5C2.6,83.5,2.6,83.5,2.6,83.5c-0.2,0-0.3-0.1-0.2-0.3c0-0.2,0-0.4,0.1-0.5c0-0.4,0.1-0.7,0.1-1.1
				c0-11.1,0-22.2,0-33.2v-6.6c0-0.1,0.1-0.2,0.2-0.2c0.1,0,0.2,0.1,0.2,0.2v6.6c0,11.1,0,22.2,0,33.2c0,0.4,0,0.8-0.1,1.1
				c0,0.2,0,0.3-0.1,0.5C2.9,83.4,2.8,83.5,2.6,83.5z"/>
		</g>
		<g>
			<path class="st0" d="M12.7,83.5c-0.1,0-0.2-0.1-0.2-0.2c0-0.2,0-0.3-0.1-0.5c0-0.4-0.1-0.8-0.1-1.1c0-12,0-23.9,0-35.9v-4
				c0-0.1,0.1-0.2,0.2-0.2s0.2,0.1,0.2,0.2v4c0,12,0,23.9,0,35.9c0,0.4,0,0.7,0.1,1.1c0,0.2,0,0.4,0.1,0.5
				C13,83.4,12.9,83.5,12.7,83.5C12.7,83.5,12.7,83.5,12.7,83.5z"/>
		</g>
		<g>
			<path class="st0" d="M16,83.5c-0.1,0-0.2-0.1-0.2-0.2c0-0.2,0-0.3-0.1-0.5c0-0.4-0.1-0.8-0.1-1.1c0-12,0-23.9,0-35.9v-4
				c0-0.1,0.1-0.2,0.2-0.2s0.2,0.1,0.2,0.2v4c0,12,0,23.9,0,35.9c0,0.4,0,0.7,0.1,1.1c0,0.2,0,0.4,0.1,0.5
				C16.2,83.4,16.1,83.5,16,83.5C16,83.5,16,83.5,16,83.5z"/>
		</g>
		<g>
			<path class="st0" d="M19.2,83.5c-0.1,0-0.2-0.1-0.2-0.2c0-0.2,0-0.3-0.1-0.5c0-0.4-0.1-0.8-0.1-1.1c0-12,0-23.9,0-35.9v-4
				c0-0.1,0.1-0.2,0.2-0.2c0.1,0,0.2,0.1,0.2,0.2v4c0,12,0,23.9,0,35.9c0,0.4,0,0.7,0.1,1.1c0,0.2,0,0.4,0.1,0.5
				C19.5,83.4,19.4,83.5,19.2,83.5C19.2,83.5,19.2,83.5,19.2,83.5z"/>
		</g>
		<g>
			<path class="st0" d="M22.5,83.5c-0.1,0-0.2-0.1-0.2-0.2c0-0.2,0-0.3-0.1-0.5c0-0.4-0.1-0.8-0.1-1.1c0-11.1,0-22.2,0-33.2v-6.6
				c0-0.1,0.1-0.2,0.2-0.2c0.1,0,0.2,0.1,0.2,0.2v6.6c0,11.1,0,22.2,0,33.2c0,0.4,0,0.7,0.1,1.1c0,0.2,0,0.4,0.1,0.5
				C22.8,83.4,22.6,83.5,22.5,83.5C22.5,83.5,22.5,83.5,22.5,83.5z"/>
		</g>
		<g>
			<path class="st0" d="M25.8,83.5c-0.1,0-0.2-0.1-0.2-0.2c0-0.1,0-0.2-0.1-0.4c0-0.3-0.1-0.6-0.1-0.8c0-13,0-26.1,0-39.1
				c0-0.3,0-0.6,0.1-0.8c0-0.1,0-0.2,0.1-0.4c0-0.1,0.1-0.2,0.3-0.2c0.1,0,0.2,0.1,0.2,0.3c0,0.1,0,0.3-0.1,0.4
				c0,0.3-0.1,0.5-0.1,0.8c0,13,0,26.1,0,39.1c0,0.2,0,0.5,0.1,0.8c0,0.1,0,0.3,0.1,0.4C26,83.4,25.9,83.5,25.8,83.5
				C25.8,83.5,25.8,83.5,25.8,83.5z"/>
		</g>
		<g>
			<path class="st0" d="M29,83.5c-0.1,0-0.2-0.1-0.2-0.2c0-0.1,0-0.2-0.1-0.4c0-0.3-0.1-0.6-0.1-0.8c0-13,0-26.1,0-39.1
				c0-0.3,0-0.6,0.1-0.8c0-0.1,0-0.2,0.1-0.4c0-0.1,0.1-0.2,0.3-0.2c0.1,0,0.2,0.1,0.2,0.3c0,0.1,0,0.3-0.1,0.4
				c0,0.3-0.1,0.5-0.1,0.8c0,13,0,26.1,0,39.1c0,0.2,0,0.5,0.1,0.8c0,0.1,0,0.3,0.1,0.4C29.3,83.4,29.2,83.5,29,83.5
				C29,83.5,29,83.5,29,83.5z"/>
		</g>
		<g>
			<path class="st0" d="M32.3,83.5c-0.1,0-0.2-0.1-0.2-0.2V41.8c0-0.1,0.1-0.2,0.2-0.2c0.1,0,0.2,0.1,0.2,0.2v41.5
				C32.5,83.4,32.4,83.5,32.3,83.5z"/>
		</g>
		<g>
			<path class="st0" d="M38.8,83.5C38.8,83.5,38.8,83.5,38.8,83.5c-0.2,0-0.3-0.1-0.2-0.3c0-0.2,0-0.3,0.1-0.5
				c0-0.4,0.1-0.7,0.1-1.1c0-11.1,0-22.2,0-33.2v-6.6c0-0.1,0.1-0.2,0.2-0.2s0.2,0.1,0.2,0.2v6.6c0,11.1,0,22.2,0,33.2
				c0,0.4,0,0.8-0.1,1.1c0,0.2,0,0.3-0.1,0.5C39,83.4,38.9,83.5,38.8,83.5z"/>
		</g>
		<g>
			<path class="st0" d="M6,83.2c-0.1,0-0.2-0.1-0.2-0.2V41.8c0-0.1,0.1-0.2,0.2-0.2s0.2,0.1,0.2,0.2V83C6.3,83.1,6.2,83.2,6,83.2z"
				/>
		</g>
		<g>
			<path class="st0" d="M9.3,83.2C9.2,83.2,9,83.1,9,83V41.8c0-0.1,0.1-0.2,0.2-0.2c0.1,0,0.2,0.1,0.2,0.2V83
				C9.5,83.1,9.4,83.2,9.3,83.2z"/>
		</g>
	</g>
</g>
</svg>
