<?xml version="1.0" encoding="utf-8"?>
<!-- Generator: Adobe Illustrator 27.7.0, SVG Export Plug-In . SVG Version: 6.00 Build 0)  -->
<svg version="1.1" id="Layer_1" xmlns="http://www.w3.org/2000/svg" xmlns:xlink="http://www.w3.org/1999/xlink" x="0px" y="0px"
	 viewBox="0 0 72 72" style="enable-background:new 0 0 72 72;" xml:space="preserve">
<style type="text/css">
	.st0{fill:none;}
	.st1{fill:#CED1D2;}
</style>
<g>
	<rect class="st0" width="72" height="72"/>
	<g>
		<path class="st1" d="M55.4,66.4L72,61.7V10.3L55.1,5.5L53.3,5L36.5,0.1L36,0l-0.5,0.1L18.7,5l-1.8,0.5L0,10.3v51.3l16.6,4.8
			l1.9,0.5l17,4.9L36,72l0.5-0.1l17-4.9L55.4,66.4z M65.4,62.5l-5,1.4V39.8l5-1.4V62.5z M71.5,60.8l-5.1,1.5V38.1l5.1-1.5V60.8z
			 M66.4,9.8l5.1,1.5v24.1l-5.1-1.5V9.8z M60.5,8.1l5,1.4v24.1l-5-1.4V8.1z M54.5,6.3l5,1.4v24.1l-5-1.4V6.3z M42.5,2.9l11,3.1v24.1
			l-11-3.1V2.9z M36.5,1.2l5,1.4v24.1l-5-1.4V1.2z M30.5,2.6l5-1.4v24.1l-5,1.4V2.6z M18.5,6.1l11-3.1V27l-11,3.1V6.1z M12.6,7.8
			l5-1.4v24.1l-5,1.4V7.8z M6.6,9.5l5-1.4v24.1l-5,1.4V9.5z M0.5,11.2l5.1-1.5v24.1l-5.1,1.5V11.2z M5.6,62.2l-5.1-1.5V36.7l5.1,1.5
			V62.2z M11.6,63.9l-5-1.4V38.4l5,1.4V63.9z M17.5,65.7l-5-1.4V40.1l5,1.4V65.7z M17.8,40.6L1.8,36L36,26.2l16.1,4.6L17.8,40.6z
			 M29.5,69.1l-11-3.1V41.9l11,3.1V69.1z M35.5,70.8l-5-1.4V45.3l5,1.4V70.8z M41.5,69.4l-5,1.4V46.7l5-1.4V69.4z M53.5,65.9
			l-11,3.1V45l11-3.1V65.9z M36,45.8l-16.3-4.7l34.2-9.8L70.2,36L36,45.8z M54.5,41.6l5-1.4v24.1l-5,1.4V41.6z"/>
		<polygon class="st1" points="72,0 70.3,0 53.6,5 53.8,6 72,0.5 		"/>
		<polygon class="st1" points="0,71.5 0,72 1.8,72 18.4,67 18.2,66 		"/>
		<polygon class="st1" points="1.8,0 0,0 0,0.5 		"/>
		<polygon class="st1" points="72,72 72,71.5 70.3,72 		"/>
	</g>
</g>
</svg>
