<?xml version="1.0" encoding="utf-8"?>
<!-- Generator: Adobe Illustrator 27.7.0, SVG Export Plug-In . SVG Version: 6.00 Build 0)  -->
<svg version="1.1" id="Layer_1" xmlns="http://www.w3.org/2000/svg" xmlns:xlink="http://www.w3.org/1999/xlink" x="0px" y="0px"
	 viewBox="0 0 384 273.1" style="enable-background:new 0 0 384 273.1;" xml:space="preserve">
<style type="text/css">
	.st0{fill:#FFFFFF;}
</style>
<g>
	<path class="st0" d="M93.7,1.4h32.4C121,0.5,115.6,0,110,0S99,0.5,93.7,1.4z"/>
	<path class="st0" d="M93.9,273h32.2c-5.1-0.9-10.5-1.4-16.1-1.4C104.4,271.7,99,272.2,93.9,273z"/>
	<path class="st0" d="M372.8,273c3.6-1.6,7.3-3.1,11.1-4.3v-1.6c-5,1.7-9.9,3.7-14.7,5.9H372.8z"/>
	<path class="st0" d="M62.8,273h3.6c13.3-5.9,27.5-9.9,43.5-9.9s30.2,4.1,43.5,9.9h3.6c-14.3-6.7-29.7-11.4-47.2-11.4
		C92.5,261.6,77.1,266.4,62.8,273z"/>
	<path class="st0" d="M353.1,273c9.8-5.6,19.9-10.7,30.8-14.4V257c-12,4-23.1,9.8-33.8,16H353.1z"/>
	<path class="st0" d="M43.7,273h3c19-10.7,39.1-20,63.2-20s44.3,9.3,63.2,20h3c-19.8-11.4-40.8-21.5-66.3-21.5S63.5,261.7,43.7,273z
		"/>
	<path class="st0" d="M383.9,248.6V247c-16,5.4-30.4,13.9-44.5,22.3c-2.1,1.3-4.3,2.5-6.4,3.8h3c1.4-0.8,2.8-1.7,4.2-2.5
		C354,262.3,368.2,253.9,383.9,248.6z"/>
	<path class="st0" d="M110,241.5c-30.1,0-53.9,14.1-77,27.8c-2.1,1.3-4.3,2.5-6.4,3.8h3c1.4-0.8,2.8-1.7,4.2-2.5
		C56.6,257,80.3,243,110,243s53.4,14,76.2,27.6c1.4,0.8,2.8,1.7,4.2,2.5h3c-2.1-1.3-4.3-2.5-6.4-3.8
		C163.9,255.6,140.1,241.5,110,241.5z"/>
	<path class="st0" d="M383.9,238.5v-1.6c-16,5.4-30.4,13.9-44.5,22.3c-8,4.8-16.2,9.6-24.7,13.8h3.3c7.6-3.9,14.9-8.3,22.1-12.6
		C354,252.2,368.2,243.8,383.9,238.5z"/>
	<path class="st0" d="M186.9,259.2c-23-13.7-46.9-27.8-77-27.8s-53.9,14.1-77,27.8c-8,4.7-16.2,9.6-24.7,13.8h3.3
		c7.6-3.9,14.9-8.3,22.1-12.6c22.9-13.6,46.5-27.6,76.2-27.6s53.4,14,76.2,27.6c7.2,4.3,14.6,8.6,22.1,12.6h3.3
		C203.1,268.8,195,264,186.9,259.2z"/>
	<path class="st0" d="M110,222.9c29.7,0,53.4,14,76.2,27.6c14.4,8.5,29.2,17.3,45.5,22.6h5.2c-18.2-5-34.3-14.6-50-23.9
		c-23-13.7-46.9-27.8-77-27.8s-53.9,14.1-77,27.8c-10.6,6.3-21.5,12.7-32.9,17.7v1.6c11.7-5.1,22.9-11.7,33.7-18.1
		C56.6,236.9,80.3,222.9,110,222.9z"/>
	<path class="st0" d="M289.4,273h5.2c16.4-5.3,31.1-14.1,45.5-22.6c13.9-8.2,28.1-16.6,43.8-22v-1.6c-16,5.4-30.4,13.9-44.5,22.3
		C323.7,258.5,307.6,268,289.4,273z"/>
	<path class="st0" d="M110,212.8c29.7,0,53.4,14,76.2,27.6c23,13.7,46.9,27.8,77,27.8s53.9-14.1,77-27.8c13.9-8.2,28.1-16.6,43.8-22
		v-1.6c-16,5.4-30.4,13.9-44.5,22.3c-22.9,13.6-46.5,27.6-76.2,27.6c-29.7,0-53.4-14-76.2-27.6c-23-13.7-46.9-27.8-77-27.8
		s-53.9,14.1-77,27.8c-10.6,6.3-21.5,12.7-32.9,17.7v1.6c11.7-5.1,22.9-11.7,33.7-18.1C56.6,226.8,80.3,212.8,110,212.8z"/>
	<path class="st0" d="M110,202.7c29.7,0,53.4,14,76.2,27.6c23,13.7,46.9,27.8,77,27.8s53.9-14.1,77-27.8c13.9-8.2,28.1-16.6,43.8-22
		v-1.6c-16,5.4-30.4,13.9-44.5,22.3c-22.9,13.6-46.5,27.6-76.2,27.6c-29.7,0-53.4-14-76.2-27.6c-23-13.7-46.9-27.8-77-27.8
		s-53.9,14.1-77,27.8c-10.6,6.3-21.5,12.7-32.9,17.7v1.6c11.7-5.1,22.9-11.7,33.7-18.1C56.6,216.7,80.3,202.7,110,202.7z"/>
	<path class="st0" d="M110,192.7c29.7,0,53.4,14,76.2,27.6c23,13.7,46.9,27.8,77,27.8s53.9-14.1,77-27.8c13.9-8.2,28.1-16.6,43.8-22
		v-1.6c-16,5.4-30.4,13.9-44.5,22.3c-22.9,13.6-46.5,27.6-76.2,27.6c-29.7,0-53.4-14-76.2-27.6c-23-13.7-46.9-27.8-77-27.8
		s-53.9,14.1-77,27.8c-10.6,6.3-21.5,12.7-32.9,17.7v1.6c11.7-5.1,22.9-11.7,33.7-18.1C56.6,206.7,80.3,192.7,110,192.7z"/>
	<path class="st0" d="M110,182.6c29.7,0,53.4,14,76.2,27.6c23,13.7,46.9,27.8,77,27.8s53.9-14.1,77-27.8c13.9-8.2,28.1-16.6,43.8-22
		v-1.6c-16,5.4-30.4,13.9-44.5,22.3c-22.9,13.6-46.5,27.6-76.2,27.6c-29.7,0-53.4-14-76.2-27.6c-23-13.7-46.9-27.8-77-27.8
		s-53.9,14.1-77,27.8c-10.6,6.3-21.5,12.7-32.9,17.7v1.6c11.7-5.1,22.9-11.7,33.7-18.1C56.6,196.6,80.3,182.6,110,182.6z"/>
	<path class="st0" d="M110,172.5c29.7,0,53.4,14,76.2,27.6c23,13.7,46.9,27.8,77,27.8s53.9-14.1,77-27.8c13.9-8.2,28.1-16.6,43.8-22
		v-1.6c-16,5.4-30.4,13.9-44.5,22.3c-22.9,13.6-46.5,27.6-76.2,27.6c-29.7,0-53.4-14-76.2-27.6c-23-13.7-46.9-27.8-77-27.8
		s-53.9,14.1-77,27.8c-10.6,6.3-21.5,12.7-32.9,17.7v1.6c11.7-5.1,22.9-11.7,33.7-18.1C56.6,186.6,80.3,172.5,110,172.5z"/>
	<path class="st0" d="M110,162.5c29.7,0,53.4,14,76.2,27.6c23,13.7,46.9,27.8,77,27.8s53.9-14.1,77-27.8c13.9-8.2,28.1-16.6,43.8-22
		v-1.6c-16,5.4-30.4,13.9-44.5,22.3c-22.9,13.6-46.5,27.6-76.2,27.6c-29.7,0-53.4-14-76.2-27.6c-23-13.7-46.9-27.8-77-27.8
		s-53.9,14.1-77,27.8c-10.7,6.2-21.6,12.7-33,17.7v1.6C11.8,203,23,196.4,33.8,190C56.6,176.5,80.3,162.5,110,162.5z"/>
	<path class="st0" d="M110,152.4c29.7,0,53.4,14,76.2,27.6c23,13.7,46.9,27.8,77,27.8s53.9-14.1,77-27.8c13.9-8.2,28.1-16.6,43.8-22
		v-1.6c-16,5.4-30.4,13.9-44.5,22.3c-22.9,13.6-46.5,27.6-76.2,27.6c-29.7,0-53.4-14-76.2-27.6c-23-13.7-46.9-27.8-77-27.8
		s-53.9,14.1-77,27.8c-10.7,6.3-21.6,12.7-33,17.7v1.6c11.7-5.1,22.9-11.7,33.7-18.1C56.6,166.4,80.3,152.4,110,152.4z"/>
	<path class="st0" d="M110,142.4c29.7,0,53.4,14,76.2,27.6c23,13.7,46.9,27.8,77,27.8s53.9-14.1,77-27.8c13.9-8.2,28.1-16.6,43.8-22
		v-1.6c-16,5.4-30.4,13.9-44.5,22.3c-22.9,13.6-46.5,27.6-76.2,27.6c-29.7,0-53.4-14-76.2-27.6c-23-13.7-46.9-27.8-77-27.8
		s-53.9,14.1-77,27.8c-10.6,6.3-21.5,12.7-32.9,17.7v1.6c11.7-5.1,22.9-11.7,33.7-18.1C56.6,156.4,80.3,142.4,110,142.4z"/>
	<path class="st0" d="M110,132.3c29.7,0,53.4,14,76.2,27.6c23,13.7,46.9,27.8,77,27.8s53.9-14.1,77-27.8c13.9-8.2,28.1-16.6,43.8-22
		v-1.6c-16,5.4-30.4,13.9-44.5,22.3c-22.9,13.6-46.5,27.6-76.2,27.6c-29.7,0-53.4-14-76.2-27.6c-23-13.7-46.9-27.8-77-27.8
		s-53.9,14.1-77,27.8c-10.6,6.3-21.5,12.7-32.9,17.7v1.6c11.7-5.1,22.9-11.7,33.7-18.1C56.6,146.3,80.3,132.3,110,132.3z"/>
	<path class="st0" d="M110,122.2c29.7,0,53.4,14,76.2,27.6c23,13.7,46.9,27.8,77,27.8s53.9-14.1,77-27.8c13.9-8.2,28.1-16.6,43.8-22
		v-1.6c-16,5.4-30.4,13.9-44.5,22.3c-22.9,13.6-46.5,27.6-76.2,27.6c-29.7,0-53.4-14-76.2-27.6c-23-13.7-46.9-27.8-77-27.8
		s-53.9,14.1-77,27.8c-10.6,6.3-21.5,12.7-32.9,17.7v1.6c11.7-5.1,22.9-11.7,33.7-18.1C56.6,136.3,80.3,122.2,110,122.2z"/>
	<path class="st0" d="M110,112.2c29.7,0,53.4,14,76.2,27.6c23,13.7,46.9,27.8,77,27.8s53.9-14.1,77-27.8c13.9-8.2,28.1-16.6,43.8-22
		v-1.6c-16,5.4-30.4,13.9-44.5,22.3c-23,13.5-46.6,27.5-76.3,27.5c-29.7,0-53.4-14-76.2-27.6c-23-13.7-46.9-27.8-77-27.8
		s-53.9,14.1-77,27.8c-10.6,6.3-21.5,12.7-32.9,17.7v1.6c11.7-5.1,22.9-11.7,33.7-18.1C56.6,126.2,80.3,112.2,110,112.2z"/>
	<path class="st0" d="M110,102.1c29.7,0,53.4,14,76.2,27.6c23,13.7,46.9,27.8,77,27.8s53.9-14.1,77-27.8c13.9-8.2,28.1-16.6,43.8-22
		v-1.6c-16,5.4-30.4,13.9-44.5,22.3C316.6,142,293,156,263.3,156c-29.7,0-53.4-14-76.2-27.6c-23-13.7-46.9-27.8-77-27.8
		s-53.9,14.1-77,27.8c-10.6,6.3-21.5,12.7-32.9,17.7v1.6c11.7-5.1,22.9-11.7,33.7-18.1C56.6,116.1,80.3,102.1,110,102.1z"/>
	<path class="st0" d="M110,92.1c29.7,0,53.4,14,76.2,27.6c23,13.7,46.9,27.8,77,27.8s53.9-14.1,77-27.8c13.9-8.2,28.1-16.6,43.8-22
		v-1.6c-16,5.4-30.4,13.9-44.5,22.3C316.6,132,293,146,263.3,146c-29.7,0-53.4-14-76.2-27.6c-23-13.7-46.9-27.8-77-27.8
		s-53.9,14.1-77,27.8c-10.7,6.2-21.6,12.6-33,17.7v1.6c11.7-5.1,22.9-11.7,33.7-18.1C56.6,106.1,80.3,92.1,110,92.1z"/>
	<path class="st0" d="M110,82c29.7,0,53.4,14,76.2,27.6c23,13.7,46.9,27.8,77,27.8s53.9-14.1,77-27.8c13.9-8.2,28.1-16.6,43.8-22V86
		c-16,5.4-30.4,13.9-44.5,22.3c-22.9,13.6-46.5,27.6-76.2,27.6c-29.7,0-53.4-14-76.2-27.6c-23-13.7-46.9-27.8-77-27.8
		s-53.9,14.1-77,27.8c-10.7,6.2-21.6,12.7-33,17.7v1.6c11.7-5.1,22.9-11.7,33.7-18.1C56.6,96,80.3,82,110,82z"/>
	<path class="st0" d="M110,71.9c29.7,0,53.4,14,76.2,27.6c23,13.7,46.9,27.8,77,27.8s53.9-14.1,77-27.8c13.9-8.2,28.1-16.6,43.8-22
		v-1.6c-16,5.4-30.4,13.9-44.5,22.3c-22.9,13.6-46.5,27.6-76.2,27.6c-29.7,0-53.4-14-76.2-27.6c-23-13.7-46.9-27.8-77-27.8
		s-53.9,14.1-77,27.8c-10.7,6.3-21.6,12.7-33,17.8v1.6c11.7-5.1,22.9-11.7,33.7-18.1C56.6,85.9,80.3,71.9,110,71.9z"/>
	<path class="st0" d="M110,61.9c29.7,0,53.4,14,76.2,27.6c23,13.7,46.9,27.8,77,27.8s53.9-14.1,77-27.8c13.9-8.2,28.1-16.6,43.8-22
		v-1.6c-16,5.4-30.4,13.9-44.5,22.3c-22.9,13.6-46.5,27.6-76.2,27.6c-29.7,0-53.4-14-76.2-27.6c-23-13.7-46.9-27.8-77-27.8
		s-53.9,14.1-77,27.8c-10.7,6.2-21.6,12.7-33,17.7v1.6c11.7-5.1,22.9-11.7,33.7-18.1C56.6,75.9,80.3,61.9,110,61.9z"/>
	<path class="st0" d="M110,51.8c29.7,0,53.4,14,76.2,27.6c23,13.7,46.9,27.8,77,27.8s53.9-14.1,77-27.8c13.9-8.2,28.1-16.6,43.8-22
		v-1.6c-16,5.4-30.4,13.9-44.5,22.3c-22.9,13.6-46.5,27.6-76.2,27.6c-29.7,0-53.4-14-76.2-27.6c-23-13.7-46.9-27.8-77-27.8
		s-53.9,14.1-77,27.8c-10.7,6.3-21.6,12.7-33,17.7v1.6C11.8,92.3,23,85.7,33.8,79.3C56.6,65.8,80.3,51.8,110,51.8z"/>
	<path class="st0" d="M110,41.7c29.7,0,53.4,14,76.2,27.6c23,13.7,46.9,27.8,77,27.8s53.9-14.1,77-27.8c13.9-8.2,28.1-16.6,43.8-22
		v-1.6c-16,5.4-30.4,13.9-44.5,22.3c-22.9,13.6-46.5,27.6-76.2,27.6c-29.7,0-53.4-14-76.2-27.6c-23-13.7-46.9-27.8-77-27.8
		S56.2,54.3,33.1,68c-10.7,6.3-21.6,12.7-33,17.8v1.6C11.8,82.3,23,75.7,33.8,69.3C56.6,55.8,80.3,41.7,110,41.7z"/>
	<path class="st0" d="M110,31.7c29.7,0,53.4,14,76.2,27.6c23,13.7,46.9,27.8,77,27.8s53.9-14.1,77-27.8c13.9-8.2,28.1-16.6,43.8-22
		v-1.6c-16,5.4-30.4,13.9-44.5,22.3c-22.9,13.6-46.5,27.6-76.2,27.6c-29.7,0-53.4-14-76.2-27.6c-23-13.7-46.9-27.8-77-27.8
		S56.2,44.3,33.1,58c-10.7,6.2-21.6,12.7-33,17.7v1.6C11.8,72.2,23,65.6,33.8,59.2C56.6,45.7,80.3,31.7,110,31.7z"/>
	<path class="st0" d="M110,21.6c29.7,0,53.4,14,76.2,27.6c23,13.7,46.9,27.8,77,27.8s53.9-14.1,77-27.8c13.9-8.2,28.1-16.6,43.8-22
		v-1.6c-16,5.4-30.4,13.9-44.5,22.3c-22.9,13.6-46.5,27.6-76.2,27.6c-29.7,0-53.4-14-76.2-27.6c-23-13.7-46.9-27.8-77-27.8
		s-53.9,14.1-77,27.8c-10.7,6.3-21.6,12.7-33,17.7v1.6C11.8,62.1,23,55.5,33.8,49.1C56.6,35.6,80.3,21.6,110,21.6z"/>
	<path class="st0" d="M110,11.6c29.7,0,53.4,14,76.2,27.6c23,13.7,46.9,27.8,77,27.8s53.9-14.1,77-27.8c13.9-8.2,28.1-16.6,43.8-22
		v-1.6c-16,5.4-30.4,13.9-44.5,22.3c-22.9,13.6-46.5,27.6-76.2,27.6c-29.7,0-53.4-14-76.2-27.6c-23-13.7-46.9-27.8-77-27.8
		s-53.9,14.1-77,27.8c-10.7,6.2-21.6,12.7-33,17.7v1.6C11.8,52.1,23,45.5,33.8,39.1C56.6,25.6,80.3,11.6,110,11.6z"/>
	<path class="st0" d="M110,1.5c29.7,0,53.4,14,76.2,27.6c23,13.7,46.9,27.8,77,27.8s53.9-14.1,77-27.8c13.9-8.2,28.1-16.6,43.8-22
		V5.5c-16,5.4-30.4,13.9-44.5,22.3c-22.9,13.6-46.5,27.6-76.2,27.6c-29.7,0-53.4-14-76.2-27.6c-18.7-11.1-38-22.5-60.8-26.4H93.7
		c-22.8,3.9-42,15.3-60.8,26.4C22.4,34,11.5,40.5,0.1,45.5v1.6C11.8,42,23,35.4,33.8,29C56.6,15.5,80.3,1.5,110,1.5z"/>
	<path class="st0" d="M263.2,45.3c-29.7,0-53.4-14-76.2-27.6c-9.7-5.7-19.4-11.5-29.8-16.3h-3.6c11.4,5,22.1,11.4,32.7,17.6
		c23,13.7,46.9,27.8,77,27.8s53.9-14.1,77-27.8c10.5-6.3,21.3-12.6,32.7-17.6h-3.6c-10.3,4.8-20.1,10.6-29.8,16.3
		C316.5,31.3,292.9,45.3,263.2,45.3z"/>
	<path class="st0" d="M66.4,1.4h-3.6C52.4,6.2,42.6,12,33,17.7C22.4,24,11.5,30.4,0.1,35.5v1.6C11.8,32,23,25.4,33.8,19
		C44.3,12.8,55,6.4,66.4,1.4z"/>
	<path class="st0" d="M263.2,35.2c-29.7,0-53.4-14-76.2-27.6c-3.5-2.1-7.1-4.2-10.7-6.3h-3c4.4,2.5,8.7,5,13,7.6
		c23,13.7,46.9,27.8,77,27.8s53.9-14.1,77-27.8c4.3-2.5,8.6-5.1,13-7.6h-3c-3.6,2.1-7.2,4.2-10.7,6.3
		C316.5,21.2,292.9,35.2,263.2,35.2z"/>
	<path class="st0" d="M46.7,1.4h-3c-3.6,2-7.2,4.2-10.7,6.3C22.4,13.9,11.5,20.4,0.1,25.4V27C11.8,21.9,23,15.3,33.8,8.9
		C38,6.4,42.3,3.9,46.7,1.4z"/>
	<path class="st0" d="M26.6,1.4c-8.6,5-17.3,9.9-26.5,14V17c10.2-4.5,20-10,29.4-15.6H26.6z"/>
	<path class="st0" d="M263.2,26.7c28.3,0,51-12.5,72.8-25.3h-3c-20.9,12.2-42.9,23.8-69.8,23.8s-48.9-11.5-69.8-23.8h-3
		C212.1,14.2,234.9,26.7,263.2,26.7z"/>
	<path class="st0" d="M318,1.4h-3.3c-15.6,7.8-32.3,13.7-51.5,13.7s-35.9-5.9-51.5-13.7h-3.3c16.5,8.6,34.2,15.2,54.9,15.2
		C283.8,16.6,301.5,10,318,1.4z"/>
	<path class="st0" d="M8.3,1.4C5.6,2.7,2.9,4.1,0.1,5.3v1.6C4,5.2,7.8,3.3,11.6,1.4C11.6,1.4,8.3,1.4,8.3,1.4z"/>
	<path class="st0" d="M294.6,1.4h-5.2c-8.3,2.3-17,3.6-26.2,3.6c-9.3,0-17.9-1.4-26.2-3.7h-5.2c9.8,3.2,20.2,5.2,31.4,5.2
		C274.4,6.5,284.8,4.6,294.6,1.4z"/>
</g>
</svg>
