<?xml version="1.0" encoding="utf-8"?>
<!-- Generator: Adobe Illustrator 27.7.0, SVG Export Plug-In . SVG Version: 6.00 Build 0)  -->
<svg version="1.1" id="Layer_1" xmlns="http://www.w3.org/2000/svg" xmlns:xlink="http://www.w3.org/1999/xlink" x="0px" y="0px"
	 viewBox="0 0 100 100" style="enable-background:new 0 0 100 100;" xml:space="preserve">
<style type="text/css">
	.st0{fill:#FFFFFF;}
	.st1{display:none;fill-rule:evenodd;clip-rule:evenodd;fill:none;}
</style>
<g>
	<polygon class="st0" points="0,0 0,0 0,0 	"/>
	<polygon class="st0" points="4.5,0 0,4.5 0,6.7 6.7,0 	"/>
	<polygon class="st0" points="11.1,0 0,11.1 0,13.3 13.4,0 	"/>
	<polygon class="st0" points="17.8,0 0,17.8 0,20 20,0 	"/>
	<polygon class="st0" points="24.5,0 0,24.5 0,26.7 26.7,0 	"/>
	<polygon class="st0" points="31.1,0 0,31.1 0,33.3 33.4,0 	"/>
	<polygon class="st0" points="37.8,0 0,37.8 0,40 40,0 	"/>
	<polygon class="st0" points="44.5,0 0,44.5 0,46.7 46.7,0 	"/>
	<polygon class="st0" points="51.1,0 0,51.1 0,53.3 53.4,0 	"/>
	<polygon class="st0" points="57.8,0 0,57.8 0,60 60,0 	"/>
	<polygon class="st0" points="64.5,0 0,64.5 0,66.7 66.7,0 	"/>
	<polygon class="st0" points="71.1,0 0,71.1 0,73.3 73.4,0 	"/>
	<polygon class="st0" points="77.8,0 0,77.8 0,80 80,0 	"/>
	<polygon class="st0" points="84.5,0 0,84.5 0,86.7 86.7,0 	"/>
	<polygon class="st0" points="91.1,0 0,91.1 0,93.3 93.4,0 	"/>
	<polygon class="st0" points="100,0 97.8,0 0,97.8 0,100 0,100 100,0 	"/>
	<polygon class="st0" points="100,4.5 4.5,100 6.7,100 100,6.7 	"/>
	<polygon class="st0" points="100,11.1 11.1,100 13.4,100 100,13.3 	"/>
	<polygon class="st0" points="100,17.8 17.8,100 20,100 100,20 	"/>
	<polygon class="st0" points="100,24.5 24.5,100 26.7,100 100,26.7 	"/>
	<polygon class="st0" points="100,31.1 31.1,100 33.4,100 100,33.3 	"/>
	<polygon class="st0" points="100,37.8 37.8,100 40,100 100,40 	"/>
	<polygon class="st0" points="100,44.5 44.5,100 46.7,100 100,46.7 	"/>
	<polygon class="st0" points="100,51.1 51.1,100 53.3,100 100,53.3 	"/>
	<polygon class="st0" points="100,57.8 57.8,100 60,100 100,60 	"/>
	<polygon class="st0" points="100,64.5 64.5,100 66.7,100 100,66.7 	"/>
	<polygon class="st0" points="100,71.1 71.1,100 73.3,100 100,73.3 	"/>
	<polygon class="st0" points="100,77.8 77.8,100 80,100 100,80 	"/>
	<polygon class="st0" points="100,84.5 84.5,100 86.7,100 100,86.7 	"/>
	<polygon class="st0" points="100,91.1 91.1,100 93.3,100 100,93.3 	"/>
	<polygon class="st0" points="100,97.8 97.8,100 100,100 	"/>
</g>
<rect x="17.5" y="15.4" class="st1" width="63.9" height="63.9"/>
</svg>
