<?xml version="1.0" encoding="utf-8"?>
<!-- Generator: Adobe Illustrator 27.7.0, SVG Export Plug-In . SVG Version: 6.00 Build 0)  -->
<svg version="1.1" id="Layer_1" xmlns="http://www.w3.org/2000/svg" xmlns:xlink="http://www.w3.org/1999/xlink" x="0px" y="0px"
	 viewBox="0 0 145 72" style="enable-background:new 0 0 145 72;" xml:space="preserve">
<style type="text/css">
	.st0{fill:#CCCCCC;}
	.st1{fill:none;stroke:#CCCCCC;stroke-miterlimit:10;}
	.st2{fill:none;stroke:#4C4C4C;stroke-miterlimit:10;}
	.st3{fill:none;stroke:#E6E6E6;stroke-miterlimit:10;}
	.st4{fill:none;stroke:#666666;stroke-miterlimit:10;}
	.st5{fill:none;}
</style>
<g>
	<path class="st0" d="M75.2,30.2c-1.5-1.5-4-1.5-5.5,0l-15,15c-1.5,1.5-1.5,4,0,5.5l15,15c1.5,1.5,4,1.5,5.5,0l15-15
		c1.5-1.5,1.5-4,0-5.5L75.2,30.2z"/>
	<path class="st1" d="M53.6,0c0,1,0.4,2,1.1,2.7l15,15c1.5,1.5,4,1.5,5.5,0l15-15C91,2,91.4,1,91.4,0"/>
	<path class="st2" d="M66.3,21.3l-15-15c-1.5-1.5-4-1.5-5.5,0l-15,15c-1.5,1.5-1.5,4,0,5.5l15,15c1.5,1.5,4,1.5,5.5,0l15-15
		C67.8,25.2,67.8,22.8,66.3,21.3z"/>
	<path class="st3" d="M67.4,72c0-1-0.4-2-1.1-2.7l-15-15c-1.5-1.5-4-1.5-5.5,0l-15,15C30,70,29.6,71,29.6,72"/>
	<path class="st1" d="M27.2,30.2c-1.5-1.5-4-1.5-5.5,0l-15,15c-1.5,1.5-1.5,4,0,5.5l15,15c1.5,1.5,4,1.5,5.5,0l15-15
		c1.5-1.5,1.5-4,0-5.5L27.2,30.2z"/>
	<path class="st1" d="M114.3,21.3l-15-15c-1.5-1.5-4-1.5-5.5,0l-15,15c-1.5,1.5-1.5,4,0,5.5l15,15c1.5,1.5,4,1.5,5.5,0l15-15
		C115.8,25.2,115.8,22.8,114.3,21.3z"/>
	<path class="st1" d="M115.4,72c0-1-0.4-2-1.1-2.7l-15-15c-1.5-1.5-4-1.5-5.5,0l-15,15C78,70,77.6,71,77.6,72"/>
	<path class="st4" d="M123.2,30.2c-1.5-1.5-4-1.5-5.5,0l-15,15c-1.5,1.5-1.5,4,0,5.5l15,15c1.5,1.5,4,1.5,5.5,0l15-15
		c1.5-1.5,1.5-4,0-5.5L123.2,30.2z"/>
</g>
<rect y="0" class="st5" width="145" height="72"/>
</svg>
