<?xml version="1.0" encoding="utf-8"?>
<!-- Generator: Adobe Illustrator 27.7.0, SVG Export Plug-In . SVG Version: 6.00 Build 0)  -->
<svg version="1.1" xmlns="http://www.w3.org/2000/svg" xmlns:xlink="http://www.w3.org/1999/xlink" x="0px" y="0px"
	 viewBox="0 0 46.8 13.2" style="enable-background:new 0 0 46.8 13.2;" xml:space="preserve">
<style type="text/css">
	.st0{fill:none;stroke:#FFFFFF;stroke-width:1.000000e-02;stroke-miterlimit:10;}
	.st1{fill:#FFFFFF;}
	.st2{fill:none;}
</style>
<g id="Layer_1">
	<g>
		<path class="st0" d="M19.5,9.1c0-0.7-0.6-1.3-1.3-1.3c-0.7,0-1.3,0.6-1.3,1.3c0,0.7,0.6,1.3,1.3,1.3C18.9,10.4,19.5,9.8,19.5,9.1z
			"/>
		<path class="st0" d="M27.2,0.9c0.9,0,1.6,0.7,1.6,1.7c0,0.9-0.7,1.6-1.6,1.6s-1.7-0.7-1.7-1.6C25.5,1.6,26.3,0.9,27.2,0.9z
			 M20.2,2.3C20.2,1,20.4,0,20.6,0c0.2,0,0.3,1,0.4,2.3c1.2,0,2.2,0.1,2.2,0.3c0,0.1-1,0.3-2.2,0.3c0,1.3-0.2,2.3-0.4,2.3
			c-0.2,0-0.3-1-0.4-2.3C19,2.8,18,2.7,18,2.6C18,2.4,19,2.3,20.2,2.3z M9,9.1c0-0.2,1-0.3,2.2-0.3c0-1.3,0.2-2.3,0.4-2.3
			c0.2,0,0.3,1,0.4,2.3c1.2,0,2.2,0.1,2.2,0.3c0,0.1-1,0.3-2.2,0.3c0,1.3-0.2,2.3-0.4,2.3c-0.2,0-0.3-1-0.4-2.3C10,9.4,9,9.3,9,9.1z
			 M15.2,3.1c0,0-0.1,0-0.1,0c-0.1,0-0.2,0-0.3-0.1l-1-0.8l-1,0.8c-0.1,0-0.2,0.1-0.3,0.1c-0.1,0-0.2,0-0.3-0.1l-1-0.8l-1,0.8
			c-0.1,0.1-0.4,0.1-0.5,0l-1-0.8l-1,0.8c-0.1,0.1-0.4,0.1-0.5,0l-1-0.8l-1,0.8C5.2,3.2,5,3.2,4.8,3.1C4.7,3.1,4.6,3,4.7,3L6,2
			c0.1-0.1,0.4-0.1,0.6,0l1,0.8l1-0.8C8.6,1.9,8.9,1.9,9,2l1,0.8L11,2c0.1,0,0.2-0.1,0.3-0.1c0.1,0,0.2,0,0.3,0.1l1,0.8l1-0.8
			c0.1-0.1,0.4-0.1,0.5,0l1.3,1C15.4,3,15.4,3.1,15.2,3.1z M16.5,9.1c0-0.9,0.7-1.7,1.6-1.7c0.9,0,1.7,0.7,1.7,1.7
			c0,0.9-0.7,1.6-1.7,1.6C17.3,10.8,16.5,10,16.5,9.1z M29.5,10.1L29.5,10.1l-1.1-1.3L27.3,10c-0.1,0.1-0.2,0.1-0.4,0l0,0l-1.1-1.3
			L24.7,10c-0.1,0.1-0.1,0.1-0.2,0l0,0l-1.1-1.5l-1.2,1.4c0,0,0,0,0,0c0,0,0,0,0-0.1l1.2-1.5c0,0,0.1,0,0.1,0l0,0l1.2,1.3l1.1-1.4
			c0.1-0.1,0.2-0.1,0.3,0l0,0l1.1,1.2l1-1.3c0.1-0.1,0.3-0.1,0.4,0l0.1,0.1l1,1.2l1.1-1.1c0.1-0.1,0.2-0.1,0.2,0l0,0l1.1,1.6
			c0,0,0,0,0,0.1c0,0,0,0-0.1,0l-1.2-1.2l-1,1.4C29.8,10.2,29.6,10.2,29.5,10.1z M36.6,9.1c0-0.6,0.5-1.2,1.2-1.2S39,8.5,39,9.1
			c0,0.6-0.5,1.2-1.2,1.2S36.6,9.8,36.6,9.1z M41.2,3.3C41.2,3.3,41.2,3.3,41.2,3.3L39.9,2l-1,1.4c-0.1,0.1-0.3,0.2-0.4,0.1
			l-0.1-0.1l-1-1.3l-1.1,1.2c-0.1,0.1-0.2,0.1-0.3,0l0,0l-1.1-1.3l-1.1,1.3c-0.1,0.1-0.2,0.1-0.2,0l0,0l-1.1-1.5l-1.2,1.4
			c0,0,0,0-0.1,0c0,0,0,0,0-0.1l1.2-1.5c0,0,0.1,0,0.1,0l0,0L33.6,3l1.1-1.4c0.1-0.1,0.2-0.1,0.3,0l0,0l1.1,1.2l1.1-1.3
			c0.1-0.1,0.3-0.1,0.4,0l0,0.1l1.1,1.2l1.1-1.2c0.1-0.1,0.2-0.1,0.2,0l0,0L41.2,3.3C41.2,3.3,41.2,3.3,41.2,3.3z"/>
		<path class="st0" d="M27.2,3.9c0.7,0,1.3-0.6,1.3-1.3c0-0.7-0.6-1.3-1.3-1.3c-0.7,0-1.3,0.6-1.3,1.3C25.9,3.3,26.5,3.9,27.2,3.9z"
			/>
		<path class="st1" d="M1.2,2.6c0-0.6-0.5-1.2-1.2-1.2v2.4C0.6,3.7,1.2,3.2,1.2,2.6z"/>
		<path class="st1" d="M27.2,4.2c0.9,0,1.6-0.7,1.6-1.6c0-0.9-0.7-1.7-1.6-1.7s-1.7,0.7-1.7,1.7C25.5,3.5,26.3,4.2,27.2,4.2z
			 M27.2,1.2c0.7,0,1.3,0.6,1.3,1.3c0,0.7-0.6,1.3-1.3,1.3c-0.7,0-1.3-0.6-1.3-1.3C25.9,1.8,26.5,1.2,27.2,1.2z"/>
		<path class="st1" d="M20.2,2.8c0,1.3,0.2,2.3,0.4,2.3c0.2,0,0.3-1,0.4-2.3c1.2,0,2.2-0.1,2.2-0.3c0-0.2-1-0.3-2.2-0.3
			C20.9,1,20.8,0,20.6,0c-0.2,0-0.3,1-0.4,2.3C19,2.3,18,2.4,18,2.6C18,2.7,19,2.8,20.2,2.8z"/>
		<path class="st1" d="M14.1,2c-0.1-0.1-0.4-0.1-0.5,0l-1,0.8l-1-0.8c-0.1,0-0.2-0.1-0.3-0.1c-0.1,0-0.2,0-0.3,0.1l-1,0.8L9,2
			C8.9,1.9,8.6,1.9,8.5,2l-1,0.8L6.5,2C6.4,1.9,6.1,1.9,6,2L4.7,3C4.6,3,4.7,3.1,4.8,3.1c0.1,0,0.3,0,0.4,0l1-0.8l1,0.8
			c0.1,0.1,0.4,0.1,0.5,0l1-0.8l1,0.8c0.1,0.1,0.4,0.1,0.5,0l1-0.8l1,0.8c0.1,0,0.2,0.1,0.3,0.1c0.1,0,0.2,0,0.3-0.1l1-0.8l1,0.8
			c0.1,0,0.2,0.1,0.3,0.1c0.1,0,0.1,0,0.1,0c0.2,0,0.2-0.1,0.1-0.2L14.1,2z"/>
		<polygon class="st1" points="36.3,3.1 36.1,2.9 35.9,3.1 		"/>
		<polygon class="st1" points="37.2,2 37.4,2.2 37.6,2 		"/>
		<polygon class="st1" points="39.8,1.9 39.9,2 40,1.9 		"/>
		<path class="st1" d="M40,1.6c-0.1-0.1-0.2,0-0.2,0l-1.1,1.2l0.2,0.3h-0.5l0.2-0.3l-1.1-1.2l0-0.1c-0.1-0.1-0.3-0.1-0.4,0l-1.1,1.3
			l0.2,0.2h-0.4l0.2-0.2L35,1.7l0,0c-0.1-0.1-0.2,0-0.3,0L33.6,3l0.1,0.1h-0.2L33.6,3l-1.2-1.3l0,0c-0.1,0-0.1,0-0.1,0l-1.2,1.5
			c0,0,0,0,0,0.1c0,0,0,0,0.1,0l1.2-1.4l-0.1-0.1h0.1l-0.1,0.1l1.1,1.5l0,0c0.1,0.1,0.2,0,0.2,0l1.1-1.3l-0.1-0.2H35l-0.2,0.2
			l1.1,1.3l0,0c0.1,0.1,0.3,0.1,0.3,0l1.1-1.2L37.2,2h0.4l-0.2,0.3l1,1.3l0.1,0.1c0.1,0.1,0.3,0.1,0.4-0.1l1-1.4l-0.1-0.2H40L39.9,2
			l1.2,1.3c0,0,0,0,0,0c0,0,0,0,0-0.1L40,1.6L40,1.6z"/>
		<polygon class="st1" points="34.7,1.9 34.9,2.1 35,1.9 		"/>
		<polygon class="st1" points="33.7,3.2 33.6,3 33.5,3.2 		"/>
		<polygon class="st1" points="38.9,3.1 38.7,2.8 38.4,3.1 		"/>
		<polygon class="st1" points="32.3,1.8 32.4,1.9 32.4,1.8 		"/>
		<path class="st1" d="M45.6,2.6c0,0.6,0.5,1.2,1.2,1.2V1.4C46.2,1.4,45.6,1.9,45.6,2.6z"/>
		<path class="st1" d="M19.8,9.1c0-0.9-0.7-1.7-1.7-1.7c-0.9,0-1.6,0.7-1.6,1.7c0,0.9,0.7,1.6,1.6,1.6C19.1,10.8,19.8,10,19.8,9.1z
			 M16.9,9.1c0-0.7,0.6-1.3,1.3-1.3c0.7,0,1.3,0.6,1.3,1.3c0,0.7-0.6,1.3-1.3,1.3C17.4,10.4,16.9,9.8,16.9,9.1z"/>
		<path class="st1" d="M11.2,9.4c0,1.3,0.2,2.3,0.4,2.3c0.2,0,0.3-1,0.4-2.3c1.2,0,2.2-0.1,2.2-0.3c0-0.2-1-0.3-2.2-0.3
			c0-1.3-0.2-2.3-0.4-2.3c-0.2,0-0.3,1-0.4,2.3C10,8.9,9,9,9,9.1C9,9.3,10,9.4,11.2,9.4z"/>
		<path class="st1" d="M1.3,9.7l1-0.8l1,0.8c0.1,0,0.2,0.1,0.3,0.1c0.1,0,0.2,0,0.3-0.1l1-0.8l1,0.8c0.1,0,0.2,0.1,0.3,0.1
			c0.1,0,0.1,0,0.2,0c0.2,0,0.2-0.1,0.1-0.2L5,8.6c-0.1-0.1-0.4-0.1-0.5,0l-1,0.8l-1-0.8c-0.1,0-0.2-0.1-0.3-0.1
			C2.1,8.5,2,8.5,2,8.6L1,9.3L0,8.6c0,0,0,0,0,0v0.5l0.7,0.6C0.8,9.7,1.2,9.7,1.3,9.7z"/>
		<polygon class="st1" points="29.9,9.7 29.6,9.4 29.4,9.7 		"/>
		<polygon class="st1" points="27.3,9.7 27.1,9.5 26.9,9.7 		"/>
		<polygon class="st1" points="24.7,9.8 24.6,9.6 24.5,9.8 		"/>
		<path class="st1" d="M30.8,8.5H31l-0.1,0.2l1.2,1.2c0,0,0,0,0.1,0c0,0,0,0,0-0.1L31,8.2l0,0c-0.1-0.1-0.2,0-0.2,0l-1.1,1.1
			l0.2,0.3h-0.5l0.3-0.3l-1-1.2l-0.1-0.1c-0.1-0.1-0.3-0.1-0.4,0l-1,1.3l0.2,0.2h-0.4l0.2-0.2L26,8.2l0,0c-0.1-0.1-0.2-0.1-0.3,0
			l-1.1,1.4l0.1,0.1h-0.2l0.1-0.1l-1.2-1.3l0,0c0,0-0.1,0-0.1,0l-1.2,1.5c0,0,0,0,0,0.1c0,0,0,0,0,0l1.2-1.4l-0.1-0.1h0.1l-0.1,0.1
			l1.1,1.5l0,0c0.1,0.1,0.2,0,0.2,0l1.1-1.3l-0.1-0.2H26l-0.2,0.2l1.1,1.3l0,0c0.1,0.1,0.3,0.1,0.4,0l1.1-1.2l-0.2-0.3h0.4l-0.2,0.3
			l1,1.3l0.1,0.1c0.1,0.1,0.3,0.1,0.4-0.1l1-1.4L30.8,8.5z"/>
		<polygon class="st1" points="30.8,8.5 30.9,8.6 31,8.5 		"/>
		<polygon class="st1" points="28.2,8.5 28.4,8.8 28.6,8.5 		"/>
		<polygon class="st1" points="25.7,8.5 25.8,8.7 26,8.5 		"/>
		<polygon class="st1" points="23.3,8.4 23.3,8.5 23.4,8.4 		"/>
		<path class="st1" d="M39,9.1C39,8.5,38.4,8,37.8,8s-1.2,0.5-1.2,1.2c0,0.6,0.5,1.2,1.2,1.2S39,9.8,39,9.1z"/>
		<path class="st1" d="M46.3,8.6l-1,0.8l-1-0.8c-0.1-0.1-0.4-0.1-0.5,0l-1.3,1c-0.1,0.1,0,0.1,0.1,0.2c0.1,0,0.3,0,0.4,0l1-0.8
			l1,0.8c0.1,0.1,0.4,0.1,0.5,0l1-0.8l0.3,0.2V8.6C46.7,8.5,46.4,8.5,46.3,8.6z"/>
	</g>
	<g>
		<path class="st0" d="M19.5,9.1c0-0.7-0.6-1.3-1.3-1.3c-0.7,0-1.3,0.6-1.3,1.3c0,0.7,0.6,1.3,1.3,1.3C18.9,10.4,19.5,9.8,19.5,9.1z
			"/>
		<path class="st0" d="M27.2,0.9c0.9,0,1.6,0.7,1.6,1.7c0,0.9-0.7,1.6-1.6,1.6s-1.7-0.7-1.7-1.6C25.5,1.6,26.3,0.9,27.2,0.9z
			 M20.2,2.3C20.2,1,20.4,0,20.6,0c0.2,0,0.3,1,0.4,2.3c1.2,0,2.2,0.1,2.2,0.3c0,0.1-1,0.3-2.2,0.3c0,1.3-0.2,2.3-0.4,2.3
			c-0.2,0-0.3-1-0.4-2.3C19,2.8,18,2.7,18,2.6C18,2.4,19,2.3,20.2,2.3z M9,9.1c0-0.2,1-0.3,2.2-0.3c0-1.3,0.2-2.3,0.4-2.3
			c0.2,0,0.3,1,0.4,2.3c1.2,0,2.2,0.1,2.2,0.3c0,0.1-1,0.3-2.2,0.3c0,1.3-0.2,2.3-0.4,2.3c-0.2,0-0.3-1-0.4-2.3C10,9.4,9,9.3,9,9.1z
			 M15.2,3.1c0,0-0.1,0-0.1,0c-0.1,0-0.2,0-0.3-0.1l-1-0.8l-1,0.8c-0.1,0-0.2,0.1-0.3,0.1c-0.1,0-0.2,0-0.3-0.1l-1-0.8l-1,0.8
			c-0.1,0.1-0.4,0.1-0.5,0l-1-0.8l-1,0.8c-0.1,0.1-0.4,0.1-0.5,0l-1-0.8l-1,0.8C5.2,3.2,5,3.2,4.8,3.1C4.7,3.1,4.6,3,4.7,3L6,2
			c0.1-0.1,0.4-0.1,0.6,0l1,0.8l1-0.8C8.6,1.9,8.9,1.9,9,2l1,0.8L11,2c0.1,0,0.2-0.1,0.3-0.1c0.1,0,0.2,0,0.3,0.1l1,0.8l1-0.8
			c0.1-0.1,0.4-0.1,0.5,0l1.3,1C15.4,3,15.4,3.1,15.2,3.1z M16.5,9.1c0-0.9,0.7-1.7,1.6-1.7c0.9,0,1.7,0.7,1.7,1.7
			c0,0.9-0.7,1.6-1.7,1.6C17.3,10.8,16.5,10,16.5,9.1z M29.5,10.1L29.5,10.1l-1.1-1.3L27.3,10c-0.1,0.1-0.2,0.1-0.4,0l0,0l-1.1-1.3
			L24.7,10c-0.1,0.1-0.1,0.1-0.2,0l0,0l-1.1-1.5l-1.2,1.4c0,0,0,0,0,0c0,0,0,0,0-0.1l1.2-1.5c0,0,0.1,0,0.1,0l0,0l1.2,1.3l1.1-1.4
			c0.1-0.1,0.2-0.1,0.3,0l0,0l1.1,1.2l1-1.3c0.1-0.1,0.3-0.1,0.4,0l0.1,0.1l1,1.2l1.1-1.1c0.1-0.1,0.2-0.1,0.2,0l0,0l1.1,1.6
			c0,0,0,0,0,0.1c0,0,0,0-0.1,0l-1.2-1.2l-1,1.4C29.8,10.2,29.6,10.2,29.5,10.1z M36.6,9.1c0-0.6,0.5-1.2,1.2-1.2S39,8.5,39,9.1
			c0,0.6-0.5,1.2-1.2,1.2S36.6,9.8,36.6,9.1z M41.2,3.3C41.2,3.3,41.2,3.3,41.2,3.3L39.9,2l-1,1.4c-0.1,0.1-0.3,0.2-0.4,0.1
			l-0.1-0.1l-1-1.3l-1.1,1.2c-0.1,0.1-0.2,0.1-0.3,0l0,0l-1.1-1.3l-1.1,1.3c-0.1,0.1-0.2,0.1-0.2,0l0,0l-1.1-1.5l-1.2,1.4
			c0,0,0,0-0.1,0c0,0,0,0,0-0.1l1.2-1.5c0,0,0.1,0,0.1,0l0,0L33.6,3l1.1-1.4c0.1-0.1,0.2-0.1,0.3,0l0,0l1.1,1.2l1.1-1.3
			c0.1-0.1,0.3-0.1,0.4,0l0,0.1l1.1,1.2l1.1-1.2c0.1-0.1,0.2-0.1,0.2,0l0,0L41.2,3.3C41.2,3.3,41.2,3.3,41.2,3.3z"/>
		<path class="st0" d="M27.2,3.9c0.7,0,1.3-0.6,1.3-1.3c0-0.7-0.6-1.3-1.3-1.3c-0.7,0-1.3,0.6-1.3,1.3C25.9,3.3,26.5,3.9,27.2,3.9z"
			/>
		<path class="st1" d="M1.2,2.6c0-0.6-0.5-1.2-1.2-1.2v2.4C0.6,3.7,1.2,3.2,1.2,2.6z"/>
		<path class="st1" d="M27.2,4.2c0.9,0,1.6-0.7,1.6-1.6c0-0.9-0.7-1.7-1.6-1.7s-1.7,0.7-1.7,1.7C25.5,3.5,26.3,4.2,27.2,4.2z
			 M27.2,1.2c0.7,0,1.3,0.6,1.3,1.3c0,0.7-0.6,1.3-1.3,1.3c-0.7,0-1.3-0.6-1.3-1.3C25.9,1.8,26.5,1.2,27.2,1.2z"/>
		<path class="st1" d="M20.2,2.8c0,1.3,0.2,2.3,0.4,2.3c0.2,0,0.3-1,0.4-2.3c1.2,0,2.2-0.1,2.2-0.3c0-0.2-1-0.3-2.2-0.3
			C20.9,1,20.8,0,20.6,0c-0.2,0-0.3,1-0.4,2.3C19,2.3,18,2.4,18,2.6C18,2.7,19,2.8,20.2,2.8z"/>
		<path class="st1" d="M14.1,2c-0.1-0.1-0.4-0.1-0.5,0l-1,0.8l-1-0.8c-0.1,0-0.2-0.1-0.3-0.1c-0.1,0-0.2,0-0.3,0.1l-1,0.8L9,2
			C8.9,1.9,8.6,1.9,8.5,2l-1,0.8L6.5,2C6.4,1.9,6.1,1.9,6,2L4.7,3C4.6,3,4.7,3.1,4.8,3.1c0.1,0,0.3,0,0.4,0l1-0.8l1,0.8
			c0.1,0.1,0.4,0.1,0.5,0l1-0.8l1,0.8c0.1,0.1,0.4,0.1,0.5,0l1-0.8l1,0.8c0.1,0,0.2,0.1,0.3,0.1c0.1,0,0.2,0,0.3-0.1l1-0.8l1,0.8
			c0.1,0,0.2,0.1,0.3,0.1c0.1,0,0.1,0,0.1,0c0.2,0,0.2-0.1,0.1-0.2L14.1,2z"/>
		<polygon class="st1" points="36.3,3.1 36.1,2.9 35.9,3.1 		"/>
		<polygon class="st1" points="37.2,2 37.4,2.2 37.6,2 		"/>
		<polygon class="st1" points="39.8,1.9 39.9,2 40,1.9 		"/>
		<path class="st1" d="M40,1.6c-0.1-0.1-0.2,0-0.2,0l-1.1,1.2l0.2,0.3h-0.5l0.2-0.3l-1.1-1.2l0-0.1c-0.1-0.1-0.3-0.1-0.4,0l-1.1,1.3
			l0.2,0.2h-0.4l0.2-0.2L35,1.7l0,0c-0.1-0.1-0.2,0-0.3,0L33.6,3l0.1,0.1h-0.2L33.6,3l-1.2-1.3l0,0c-0.1,0-0.1,0-0.1,0l-1.2,1.5
			c0,0,0,0,0,0.1c0,0,0,0,0.1,0l1.2-1.4l-0.1-0.1h0.1l-0.1,0.1l1.1,1.5l0,0c0.1,0.1,0.2,0,0.2,0l1.1-1.3l-0.1-0.2H35l-0.2,0.2
			l1.1,1.3l0,0c0.1,0.1,0.3,0.1,0.3,0l1.1-1.2L37.2,2h0.4l-0.2,0.3l1,1.3l0.1,0.1c0.1,0.1,0.3,0.1,0.4-0.1l1-1.4l-0.1-0.2H40L39.9,2
			l1.2,1.3c0,0,0,0,0,0c0,0,0,0,0-0.1L40,1.6L40,1.6z"/>
		<polygon class="st1" points="34.7,1.9 34.9,2.1 35,1.9 		"/>
		<polygon class="st1" points="33.7,3.2 33.6,3 33.5,3.2 		"/>
		<polygon class="st1" points="38.9,3.1 38.7,2.8 38.4,3.1 		"/>
		<polygon class="st1" points="32.3,1.8 32.4,1.9 32.4,1.8 		"/>
		<path class="st1" d="M45.6,2.6c0,0.6,0.5,1.2,1.2,1.2V1.4C46.2,1.4,45.6,1.9,45.6,2.6z"/>
		<path class="st1" d="M19.8,9.1c0-0.9-0.7-1.7-1.7-1.7c-0.9,0-1.6,0.7-1.6,1.7c0,0.9,0.7,1.6,1.6,1.6C19.1,10.8,19.8,10,19.8,9.1z
			 M16.9,9.1c0-0.7,0.6-1.3,1.3-1.3c0.7,0,1.3,0.6,1.3,1.3c0,0.7-0.6,1.3-1.3,1.3C17.4,10.4,16.9,9.8,16.9,9.1z"/>
		<path class="st1" d="M11.2,9.4c0,1.3,0.2,2.3,0.4,2.3c0.2,0,0.3-1,0.4-2.3c1.2,0,2.2-0.1,2.2-0.3c0-0.2-1-0.3-2.2-0.3
			c0-1.3-0.2-2.3-0.4-2.3c-0.2,0-0.3,1-0.4,2.3C10,8.9,9,9,9,9.1C9,9.3,10,9.4,11.2,9.4z"/>
		<path class="st1" d="M1.3,9.7l1-0.8l1,0.8c0.1,0,0.2,0.1,0.3,0.1c0.1,0,0.2,0,0.3-0.1l1-0.8l1,0.8c0.1,0,0.2,0.1,0.3,0.1
			c0.1,0,0.1,0,0.2,0c0.2,0,0.2-0.1,0.1-0.2L5,8.6c-0.1-0.1-0.4-0.1-0.5,0l-1,0.8l-1-0.8c-0.1,0-0.2-0.1-0.3-0.1
			C2.1,8.5,2,8.5,2,8.6L1,9.3L0,8.6c0,0,0,0,0,0v0.5l0.7,0.6C0.8,9.7,1.2,9.7,1.3,9.7z"/>
		<polygon class="st1" points="29.9,9.7 29.6,9.4 29.4,9.7 		"/>
		<polygon class="st1" points="27.3,9.7 27.1,9.5 26.9,9.7 		"/>
		<polygon class="st1" points="24.7,9.8 24.6,9.6 24.5,9.8 		"/>
		<path class="st1" d="M30.8,8.5H31l-0.1,0.2l1.2,1.2c0,0,0,0,0.1,0c0,0,0,0,0-0.1L31,8.2l0,0c-0.1-0.1-0.2,0-0.2,0l-1.1,1.1
			l0.2,0.3h-0.5l0.3-0.3l-1-1.2l-0.1-0.1c-0.1-0.1-0.3-0.1-0.4,0l-1,1.3l0.2,0.2h-0.4l0.2-0.2L26,8.2l0,0c-0.1-0.1-0.2-0.1-0.3,0
			l-1.1,1.4l0.1,0.1h-0.2l0.1-0.1l-1.2-1.3l0,0c0,0-0.1,0-0.1,0l-1.2,1.5c0,0,0,0,0,0.1c0,0,0,0,0,0l1.2-1.4l-0.1-0.1h0.1l-0.1,0.1
			l1.1,1.5l0,0c0.1,0.1,0.2,0,0.2,0l1.1-1.3l-0.1-0.2H26l-0.2,0.2l1.1,1.3l0,0c0.1,0.1,0.3,0.1,0.4,0l1.1-1.2l-0.2-0.3h0.4l-0.2,0.3
			l1,1.3l0.1,0.1c0.1,0.1,0.3,0.1,0.4-0.1l1-1.4L30.8,8.5z"/>
		<polygon class="st1" points="30.8,8.5 30.9,8.6 31,8.5 		"/>
		<polygon class="st1" points="28.2,8.5 28.4,8.8 28.6,8.5 		"/>
		<polygon class="st1" points="25.7,8.5 25.8,8.7 26,8.5 		"/>
		<polygon class="st1" points="23.3,8.4 23.3,8.5 23.4,8.4 		"/>
		<path class="st1" d="M39,9.1C39,8.5,38.4,8,37.8,8s-1.2,0.5-1.2,1.2c0,0.6,0.5,1.2,1.2,1.2S39,9.8,39,9.1z"/>
		<path class="st1" d="M46.3,8.6l-1,0.8l-1-0.8c-0.1-0.1-0.4-0.1-0.5,0l-1.3,1c-0.1,0.1,0,0.1,0.1,0.2c0.1,0,0.3,0,0.4,0l1-0.8
			l1,0.8c0.1,0.1,0.4,0.1,0.5,0l1-0.8l0.3,0.2V8.6C46.7,8.5,46.4,8.5,46.3,8.6z"/>
	</g>
	<rect y="0" class="st2" width="46.8" height="13.2"/>
</g>
<g id="Layer_2">
</g>
</svg>
