<?xml version="1.0" encoding="utf-8"?>
<!-- Generator: Adobe Illustrator 27.7.0, SVG Export Plug-In . SVG Version: 6.00 Build 0)  -->
<svg version="1.1" id="Layer_2" xmlns="http://www.w3.org/2000/svg" xmlns:xlink="http://www.w3.org/1999/xlink" x="0px" y="0px"
	 viewBox="0 0 56.8 34.2" style="enable-background:new 0 0 56.8 34.2;" xml:space="preserve">
<style type="text/css">
	.st0{fill:#FFFFFF;}
</style>
<g>
	<path class="st0" d="M20.7,13.4c1,0.5,2,0.4,2.9-0.2c0.8-0.5,1.2-1.3,1.3-2.2C22.9,9.8,20.7,11.5,20.7,13.4z M21,13.2
		c0.1-1.5,2-2.9,3.6-2.1C24.5,12.9,22.3,13.8,21,13.2z"/>
	<path class="st0" d="M31.9,10.9c0.1,1.1,0.6,1.9,1.6,2.4c0.9,0.4,1.7,0.4,2.6,0C36.1,11.6,34,9.8,31.9,10.9z M32.2,11.1
		c1.5-0.8,3.4,0.5,3.6,2.1C34.2,13.8,32.3,12.7,32.2,11.1z"/>
	<path class="st0" d="M28.5,4.9c0.9-0.6,1.3-1.5,1.3-2.6c-0.1-1-0.5-1.7-1.3-2.3C26.8,1,26.5,3.7,28.5,4.9z M28.4,0.4
		c1.2,0.7,1.6,3.1,0,4.2C26.8,3.4,27.2,1.1,28.4,0.4z"/>
	<path class="st0" d="M22.1,6.8c0.9,0.5,1.8,0.5,2.8,0.1c-0.1-1-0.5-1.8-1.3-2.3c-0.9-0.6-1.9-0.6-2.9-0.2
		C20.8,5.5,21.3,6.3,22.1,6.8z M24.6,6.7c-1.5,0.9-3.5-0.5-3.6-2C22.1,4,24.4,4.7,24.6,6.7z"/>
	<path class="st0" d="M34.7,6.8c0.9-0.5,1.4-1.3,1.5-2.3c-1-0.5-2-0.4-2.9,0.2c-0.8,0.5-1.2,1.3-1.3,2.3C32.9,7.3,33.8,7.3,34.7,6.8
		z M35.8,4.6c0,1.4-1.9,2.9-3.6,2.1C32.3,4.9,34.5,4,35.8,4.6z"/>
	<path class="st0" d="M28.4,12.9c-2,1.2-1.5,3.9,0,4.9c0.9-0.7,1.3-1.6,1.3-2.7C29.7,14.2,29.2,13.5,28.4,12.9z M28.4,17.4
		c-1.1-0.7-1.6-3,0-4.2C29.9,14.2,29.7,16.6,28.4,17.4z"/>
	<path class="st0" d="M32.4,2c-0.6,0.5-1,1.1-1.1,1.9C32,3.4,32.3,2.7,32.4,2z"/>
	<path class="st0" d="M25.5,3.9C25.4,3.1,25,2.4,24.4,2C24.5,2.7,24.8,3.4,25.5,3.9z"/>
	<path class="st0" d="M31.3,14c0.1,0.8,0.5,1.4,1.2,2C32.4,15,31.9,14.2,31.3,14z"/>
	<path class="st0" d="M24.4,15.9c0.6-0.5,1-1.2,1.1-2C24.9,14.3,24.4,15.2,24.4,15.9z"/>
	<path class="st0" d="M34.3,8.9c0.7,0.2,1.4,0.2,2.1,0C35.7,8.6,34.8,8.6,34.3,8.9z"/>
	<path class="st0" d="M22.5,8.9c-0.8-0.3-1.6-0.3-2.1,0C21.2,9.2,21.8,9.2,22.5,8.9z"/>
	<path class="st0" d="M22.8,12.8c0,0,0.1,0.1,0.1,0.1c0.1,0,0.1-0.1,0.2-0.2c-0.1-0.1-0.2-0.1-0.2-0.1
		C22.8,12.7,22.8,12.8,22.8,12.8z"/>
	<path class="st0" d="M22.1,11.7c0,0,0.1,0.1,0.2,0.2c0-0.1,0.1-0.2,0.1-0.2c0,0-0.1-0.1-0.1-0.1C22.2,11.6,22.1,11.7,22.1,11.7z"/>
	<path class="st0" d="M23.4,12.3c0,0.1,0.1,0.1,0.1,0.1c0,0,0.1-0.1,0.2-0.1C23.6,12.3,23.6,12.2,23.4,12.3
		C23.5,12.2,23.4,12.3,23.4,12.3z"/>
	<path class="st0" d="M22.8,11.3c0,0.1,0.1,0.1,0.1,0.1c0,0,0.1-0.1,0.2-0.1C23,11.3,23,11.3,22.8,11.3
		C22.9,11.2,22.8,11.3,22.8,11.3z"/>
	<path class="st0" d="M33.8,12.8c0,0.1,0.1,0.1,0.2,0.1c0,0,0.1-0.1,0.1-0.1c0-0.1-0.1-0.1-0.2-0.2C33.8,12.7,33.8,12.8,33.8,12.8z"
		/>
	<path class="st0" d="M34.4,11.7c0.1,0,0.1,0.1,0.2,0.1c0,0,0.1-0.1,0.2-0.1c-0.1-0.1-0.2-0.1-0.2-0.1
		C34.5,11.5,34.5,11.6,34.4,11.7z"/>
	<path class="st0" d="M33.2,12.4c0,0,0.1,0.1,0.1,0.2c0-0.1,0.1-0.2,0.1-0.2c0,0-0.1-0.1-0.2-0.1C33.2,12.2,33.2,12.3,33.2,12.4z"/>
	<path class="st0" d="M33.9,11.5C33.9,11.5,34,11.4,33.9,11.5c0.1-0.1,0-0.2,0-0.3c-0.1,0.1-0.1,0.1-0.1,0.2
		C33.8,11.4,33.8,11.5,33.9,11.5z"/>
	<path class="st0" d="M29.1,2.3c0-0.1,0.1-0.1,0.1-0.2c0,0-0.1-0.1-0.1-0.2c-0.1,0.1-0.1,0.2-0.1,0.2C28.9,2.2,29,2.3,29.1,2.3z"/>
	<path class="st0" d="M27.8,2.4c0.1-0.1,0.1-0.2,0.1-0.2c0-0.1-0.1-0.1-0.2-0.2c0,0-0.1,0.1-0.1,0.1C27.6,2.2,27.7,2.3,27.8,2.4z"/>
	<path class="st0" d="M27.7,3c0,0,0.1,0.1,0.1,0.1C27.9,3.1,27.9,3,28,3c-0.1-0.1-0.1-0.1-0.1-0.1C27.8,2.9,27.8,2.9,27.7,3z"/>
	<path class="st0" d="M29.1,3c0-0.1,0-0.1-0.1-0.3c-0.1,0.1-0.1,0.2-0.1,0.2C28.9,3,29,3,29,3.1C29,3,29.1,3,29.1,3z"/>
	<path class="st0" d="M22.4,6.1c0-0.1-0.1-0.1-0.1-0.2c-0.1,0.1-0.1,0.1-0.1,0.2c0,0.1,0.1,0.1,0.1,0.2C22.3,6.2,22.4,6.2,22.4,6.1z
		"/>
	<path class="st0" d="M23.1,5C23,4.9,23,4.8,22.9,4.9c-0.1,0-0.1,0.1-0.2,0.1c0.1,0,0.1,0.1,0.2,0.1C23,5.1,23,5,23.1,5z"/>
	<path class="st0" d="M23.5,5.5c0,0,0.1-0.1,0.2-0.2c-0.1,0-0.2-0.1-0.2-0.1c0,0-0.1,0.1-0.1,0.1C23.4,5.5,23.5,5.5,23.5,5.5z"/>
	<path class="st0" d="M22.8,6.5C22.8,6.5,22.9,6.5,22.8,6.5c0.1,0.1,0.2,0.1,0.3,0C23,6.4,23,6.3,23,6.3C22.9,6.3,22.9,6.4,22.8,6.5
		z"/>
	<path class="st0" d="M34.6,6.3c0-0.1,0.1-0.1,0.1-0.2c0,0-0.1-0.1-0.1-0.2c-0.1,0.1-0.1,0.2-0.1,0.2C34.4,6.2,34.5,6.2,34.6,6.3z"
		/>
	<path class="st0" d="M34,5.1c0,0,0.1-0.1,0.1-0.1c0-0.1-0.1-0.1-0.2-0.2c0,0.1-0.1,0.2-0.1,0.2C33.8,5,33.9,5.1,34,5.1z"/>
	<path class="st0" d="M33.9,6.5C33.9,6.6,34,6.5,33.9,6.5c0.1-0.2,0-0.2,0-0.3c-0.1,0.1-0.1,0.2-0.1,0.2C33.8,6.5,33.8,6.5,33.9,6.5
		z"/>
	<path class="st0" d="M33.3,5.5C33.3,5.6,33.4,5.5,33.3,5.5c0.1-0.1,0.1-0.2,0-0.3c-0.1,0.1-0.1,0.1-0.1,0.2
		C33.2,5.5,33.3,5.5,33.3,5.5z"/>
	<path class="st0" d="M27.8,15.5c-0.1,0-0.1,0.1-0.2,0.1c0,0.1,0.1,0.1,0.1,0.1c0.1,0,0.1,0,0.2-0.1C27.9,15.6,27.8,15.5,27.8,15.5z
		"/>
	<path class="st0" d="M29.3,15.6c-0.1-0.1-0.2-0.1-0.2-0.1c0,0-0.1,0.1-0.1,0.1c0.1,0,0.1,0.1,0.2,0.1
		C29.1,15.8,29.2,15.7,29.3,15.6z"/>
	<path class="st0" d="M50.7,23.2c0.9,0.5,1.7,0.4,2.6,0c-0.1-2.3-2.7-3.3-4.2-2.4C49.2,21.9,49.7,22.7,50.7,23.2z M53,23
		c-1.6,0.9-3.6-0.6-3.6-2.1C50.9,20.3,52.9,21.4,53,23z"/>
	<path class="st0" d="M50.7,27.3c-1,0.5-1.5,1.3-1.7,2.4c1.6,0.9,4.2-0.2,4.2-2.4C52.4,26.9,51.6,26.8,50.7,27.3z M49.4,29.6
		c-0.1-0.7,0.5-1.5,1.2-2c0.7-0.4,1.5-0.5,2.3-0.2C52.9,29.3,50.8,30.2,49.4,29.6z"/>
	<path class="st0" d="M55.5,18.8c0,1,0.5,1.8,1.3,2.4c0,0,0,0,0,0v-0.4c0,0,0,0,0,0c-1.6-1-1.2-3.3,0-4.2c0,0,0,0,0,0v-0.4
		c0,0,0,0,0,0C55.9,17,55.5,17.8,55.5,18.8z"/>
	<path class="st0" d="M56.8,34.2L56.8,34.2l0-0.4c-1.4-0.8-1.4-3.2,0-4.2c0,0,0,0,0,0v-0.3C54.9,30.4,55.2,33.2,56.8,34.2z"/>
	<path class="st0" d="M50.9,25.2c-0.7-0.3-1.5-0.3-2.2,0C49.4,25.6,50.4,25.6,50.9,25.2z"/>
	<path class="st0" d="M53.9,20.1c-0.2-0.8-0.5-1.4-1.2-1.9C52.8,19.1,53.3,19.9,53.9,20.1z"/>
	<path class="st0" d="M53.8,30.3c-0.7,0.6-1,1.2-1.1,2C53.4,31.8,53.8,31,53.8,30.3z"/>
	<path class="st0" d="M50.8,22.5c0-0.1-0.1-0.1-0.1-0.2c0,0-0.1,0.1-0.1,0.1c0,0.1,0.1,0.1,0.2,0.3C50.7,22.6,50.8,22.5,50.8,22.5z"
		/>
	<path class="st0" d="M51.3,21.5c0,0,0.1-0.1,0.2-0.1c-0.1-0.1-0.1-0.1-0.2-0.1c-0.1,0-0.1,0.1-0.1,0.1
		C51.2,21.4,51.2,21.4,51.3,21.5z"/>
	<path class="st0" d="M52.1,21.8c-0.1-0.1-0.1-0.1-0.2-0.1c0,0-0.1,0.1-0.1,0.1c0,0.1,0,0.1,0.1,0.2C51.9,21.9,52,21.8,52.1,21.8z"
		/>
	<path class="st0" d="M51.2,22.8c0,0,0.1,0.1,0.1,0.1c0,0,0.1-0.1,0.1-0.1C51.4,22.7,51.4,22.7,51.2,22.8
		C51.3,22.7,51.2,22.7,51.2,22.8z"/>
	<path class="st0" d="M51.1,29.2c0.1,0.1,0.1,0.1,0.2,0.2c0,0,0.1-0.1,0.1-0.1c0-0.1-0.1-0.1-0.1-0.2C51.2,29,51.2,29.1,51.1,29.2z"
		/>
	<path class="st0" d="M50.5,28.1c0,0,0.1,0.1,0.1,0.1c0.1,0,0.1-0.1,0.2-0.1c-0.1-0.1-0.2-0.1-0.2-0.1C50.6,27.9,50.5,28,50.5,28.1z
		"/>
	<path class="st0" d="M51.3,27.6c0,0-0.1,0.1-0.1,0.1c0,0.1,0.1,0.1,0.1,0.1c0.1,0,0.1,0,0.2-0.1c0,0-0.1-0.1-0.1-0.1
		C51.4,27.7,51.3,27.6,51.3,27.6z"/>
	<path class="st0" d="M51.8,28.7c0,0.1,0.1,0.1,0.1,0.1c0,0,0.1-0.1,0.1-0.1c0-0.1-0.1-0.1-0.1-0.2C51.9,28.7,51.8,28.7,51.8,28.7z"
		/>
	<path class="st0" d="M56.3,18.5c-0.1-0.1-0.1-0.1-0.2-0.1c-0.1,0-0.1,0.1-0.2,0.1c0,0.1,0.1,0.1,0.1,0.2
		C56.2,18.7,56.2,18.6,56.3,18.5z"/>
	<path class="st0" d="M56.1,19.3c0,0,0.1,0.1,0.1,0.1c0,0,0.1-0.1,0.2-0.1c-0.1,0-0.2-0.1-0.2-0.1C56.1,19.2,56.1,19.3,56.1,19.3z"
		/>
	<path class="st0" d="M56,32c0,0.1,0.1,0.1,0.1,0.2c0,0,0.1-0.1,0.2-0.1c-0.1-0.1-0.1-0.1-0.2-0.1C56.1,31.9,56.1,31.9,56,32z"/>
	<path class="st0" d="M56.3,31.2c0-0.1-0.1-0.1-0.1-0.2c0,0.1-0.1,0.1-0.1,0.2C56.1,31.3,56.2,31.3,56.3,31.2
		C56.2,31.3,56.3,31.3,56.3,31.2z"/>
	<path class="st0" d="M6.5,23c0.8-0.5,1.2-1.3,1.3-2.2c-1.6-0.9-4.2,0.2-4.2,2.4C4.6,23.7,5.6,23.7,6.5,23z M7.5,21
		c-0.1,0.9-0.6,1.5-1.3,1.9c-0.7,0.5-1.5,0.5-2.4,0.2C4.1,21.1,6.1,20.4,7.5,21z"/>
	<path class="st0" d="M6.1,27.2c-0.8-0.4-1.7-0.4-2.5,0c0.1,2.3,2.6,3.3,4.2,2.4C7.6,28.6,7.1,27.7,6.1,27.2z M7.5,29.5
		c-1.3,0.6-3.5-0.2-3.6-2.1C5.6,26.6,7.4,28.2,7.5,29.5z"/>
	<path class="st0" d="M1.3,18.7c0-1-0.4-1.8-1.3-2.4c0,0,0,0-0.1,0.1v0.3c0,0,0,0,0,0c1.4,0.8,1.4,3.1,0,4.2c0,0,0,0-0.1,0v0.4
		c0,0,0,0,0.1,0C0.9,20.6,1.4,19.8,1.3,18.7z"/>
	<path class="st0" d="M0,29.3C0,29.3,0,29.3,0,29.3l0,0.4c0,0,0,0,0,0c1.4,0.8,1.4,3.2,0,4.1c0,0,0,0,0,0v0.4
		C1.4,33.4,2.1,30.6,0,29.3z"/>
	<path class="st0" d="M5.9,25.3c0.7,0.3,1.5,0.3,2.3,0C7.4,24.9,6.6,24.9,5.9,25.3z"/>
	<path class="st0" d="M4.1,18.3c-0.6,0.5-1,1.1-1.1,1.8C3.6,19.7,4,19,4.1,18.3z"/>
	<path class="st0" d="M3,30.4c0.1,0.8,0.5,1.4,1.1,1.9C3.9,31.5,3.6,30.8,3,30.4z"/>
	<path class="st0" d="M6.2,22.6c0.1,0,0.1-0.1,0.2-0.1c-0.1-0.1-0.2-0.1-0.2-0.1c-0.1,0-0.1,0.1-0.2,0.2C6.1,22.5,6.1,22.6,6.2,22.6
		z"/>
	<path class="st0" d="M5.7,21.3c0,0-0.1-0.1-0.1-0.2c-0.1,0.1-0.1,0.2-0.1,0.2c0,0.1,0.1,0.1,0.2,0.1C5.6,21.4,5.7,21.4,5.7,21.3z"
		/>
	<path class="st0" d="M5,21.7C5,21.7,5,21.6,5,21.7c-0.1-0.1-0.2,0-0.2,0c0,0,0.1,0.1,0.1,0.2C5,21.9,5,21.8,5,21.7z"/>
	<path class="st0" d="M5.6,22.8c0,0-0.1-0.1-0.1-0.1c0,0-0.1,0.1-0.1,0.1c0,0,0.1,0.1,0.1,0.2C5.6,22.8,5.6,22.8,5.6,22.8z"/>
	<path class="st0" d="M5.5,29.1c0,0-0.1,0.1-0.1,0.1c0,0.1,0.1,0.1,0.2,0.2c0.1-0.1,0.1-0.2,0.1-0.2C5.7,29.1,5.6,29.1,5.5,29.1z"/>
	<path class="st0" d="M6.3,28.1c0-0.1-0.1-0.1-0.1-0.2c0,0-0.1,0.1-0.1,0.1c0,0.1,0.1,0.1,0.1,0.2C6.3,28.2,6.3,28.1,6.3,28.1z"/>
	<path class="st0" d="M5.5,27.9c0.1,0,0.1,0,0.2-0.1c0,0,0-0.1-0.1-0.1c-0.1,0-0.1-0.1-0.2-0.1c0,0-0.1,0.1-0.1,0.1
		C5.4,27.8,5.5,27.9,5.5,27.9z"/>
	<path class="st0" d="M4.9,28.9C5,28.8,5,28.8,5,28.7c0,0-0.1-0.1-0.1-0.1c0,0-0.1,0.1-0.1,0.1C4.8,28.8,4.9,28.8,4.9,28.9z"/>
	<path class="st0" d="M0.7,18.7c0.1-0.1,0.1-0.2,0.1-0.2c0-0.1-0.1-0.1-0.2-0.1c0,0.1-0.1,0.1-0.1,0.2C0.6,18.6,0.6,18.6,0.7,18.7z"
		/>
	<path class="st0" d="M0.6,19.4c0.1,0,0.1,0,0.2-0.1c-0.1-0.1-0.1-0.2-0.2-0.1C0.6,19.2,0.5,19.2,0.6,19.4
		C0.5,19.3,0.6,19.4,0.6,19.4z"/>
	<path class="st0" d="M0.6,32c0.1,0,0.1,0.1,0.2,0.1c0,0,0.1-0.1,0.2-0.1c-0.1-0.1-0.1-0.1-0.2-0.1C0.6,31.9,0.6,31.9,0.6,32z"/>
	<path class="st0" d="M0.8,31.2c-0.1,0-0.1-0.1-0.2-0.1c0,0-0.1,0.1-0.1,0.1c0.1,0,0.1,0.1,0.2,0.1C0.7,31.3,0.7,31.3,0.8,31.2z"/>
</g>
</svg>
