<?xml version="1.0" encoding="utf-8"?>
<!-- Generator: Adobe Illustrator 27.7.0, SVG Export Plug-In . SVG Version: 6.00 Build 0)  -->
<svg version="1.1" id="Layer_1" xmlns="http://www.w3.org/2000/svg" xmlns:xlink="http://www.w3.org/1999/xlink" x="0px" y="0px"
	 viewBox="0 0 113.1 99.7" style="enable-background:new 0 0 113.1 99.7;" xml:space="preserve">
<style type="text/css">
	.st0{fill:#FFFFFF;}
</style>
<g>
	<polygon class="st0" points="112.4,75.4 112.4,75.4 112.4,75.4 	"/>
	<polygon class="st0" points="113.1,0 113.1,0 113.1,0 	"/>
	<polygon class="st0" points="111.7,40.8 111.7,40.8 111.5,40.6 111.5,42.4 112.4,41.5 	"/>
	<polygon class="st0" points="55.9,40.8 55.9,40.8 55.9,40.8 	"/>
	<polygon class="st0" points="0.9,97.3 0.2,96.6 0,96.4 0,98.1 	"/>
	<path class="st0" d="M0.9,75.4l6.4-6.1L18,79.6L0.9,95.9l0.7,0.7l0,0l3,3.2h0.3l-2.6-2.5l16.3-17.1l8.7,8.3L16.6,99.7h1.7l10.5-9.9
		L28,89.1l0,0l-9-9.5l9-9.5l10,9.5l-9.3,8.8l0.7,0.7l10.1,10.6h1.1l-10.5-9.9l8.8-9.3l16.2,15.4l-3.7,3.9H54l2.6-2.5l-0.7-0.7
		L39.8,79.6l9.7-10.2l6.4,6.7l0.7-0.7l6.4-6.1l10.7,10.2L56.6,95.9l0.7,0.7l0,0l3,3.2h0.3l-2.6-2.5l16.3-17.1l8.7,8.3L72.3,99.7H74
		l10.5-9.9l-0.7-0.7l0,0l-9-9.5l9-9.5l10,9.5l-9.3,8.8l0.7,0.7l10.1,10.6h1.1l-10.5-9.9l8.8-9.3l16.2,15.4l-3.7,3.9h2.5l1.7-1.6
		v-1.8L95.6,79.6l9.7-10.2l6.2,6.5v-2.7l-5.2-4.9l5.2-5.4v-0.1L106,68L95.2,57.8l16.2-15.4v-1.8l-8.8-9.3l8.8-9.3V22l-9.3,8.8
		L92,20.1l10.2-9.7l9.3,9.8v-2.7l-8.4-8l6.7-6.4h-2.5l-5.2,5.4l-5.7-5.4h-1.1l6,6.3l-9.7,10.2l-6.4-6.7l-0.7,0.7l0,0l-6.4,6.1
		L67.4,9.5l6.7-6.4h-1.7L66.8,9l-6.1-5.8h-0.3l6,6.3l-9,9.5l-10-9.5L54,3.2h-2.5l-5.2,5.4l-5.7-5.4h-1.1l6,6.3l-9.7,10.2l-6.4-6.7
		l-0.7,0.7l0,0l-6.4,6.1L11.6,9.5l6.7-6.4h-1.7L11,9L4.9,3.2H4.6l6,6.3l-9,9.5L0,17.5v2.7l0.2,0.2l0.7-0.7L11.1,10l10.2,10.7
		l-10.2,9.7l-9.5-10l-0.7,0.7L0,21.9V22l0.2-0.2l10,9.5l-9.3,8.8l0.7,0.7l16.1,16.9L8,68l-6.4-6.7l-0.7,0.7l0,0L0,62.8v0.1l0.2-0.2
		l6.8,6.4l-5.4,5.7L0,73.2V76l0.2,0.2L0.9,75.4z M57.3,74.7l-6.8-6.4l5.4-5.7l6.8,6.4L57.3,74.7z M57.3,61.2l-0.7,0.7l0,0L50.2,68
		L39.5,57.8l17.1-16.3l-0.7-0.7l0,0l0,0l0,0l-9-9.5l9-9.5l10,9.5l-9.3,8.8l0.7,0.7l16.1,16.9L63.7,68L57.3,61.2z M38.9,57.3L30.2,49
		l16.3-17.1l8.7,8.3L38.9,57.3z M66.9,32.2l16.2,15.4l-8.8,9.3L58.1,41.5L66.9,32.2z M104.9,69l-10.2,9.7l-9.5-10l-0.7,0.7
		l-10.2,9.7L64.1,68.3l10.2-9.7l9.5,10l0.7-0.7l10.2-9.7L104.9,69z M102.2,31.8l8.7,8.3L94.7,57.3L85.9,49L102.2,31.8z M83.8,14.4
		l6.8,6.4l-5.4,5.7L78.4,20L83.8,14.4z M83.8,27.9l0.7-0.7l0,0l6.4-6.1l10.7,10.2L84.5,47.6l0.7,0.7l0,0l9,9.5l-9,9.5l-10-9.5
		l9.3-8.8l-0.7-0.7L67.7,31.3l9.7-10.2L83.8,27.9z M46.4,10.4l9.5,10l0.7-0.7L66.8,10L77,20.7l-10.2,9.7l-9.5-10l-0.7,0.7l-10.2,9.7
		L36.2,20.1L46.4,10.4z M28.1,14.4l6.8,6.4l-5.4,5.7L22.7,20L28.1,14.4z M21.6,21.1l6.4,6.7l0.7-0.7l0,0l6.4-6.1l10.7,10.2
		L28.8,47.6l0.7,0.7l0,0l9,9.5l-9,9.5l-10-9.5l9.3-8.8L28,48.3L12,31.3L21.6,21.1z M2.3,41.5l8.8-9.3l16.2,15.4l-8.8,9.3L2.3,41.5z
		 M18.5,58.7l9.5,10l0.7-0.7L39,58.3L49.1,69L39,78.7l-9.5-10l-0.7,0.7l-10.2,9.7L8.4,68.3L18.5,58.7z"/>
	<polygon class="st0" points="0.2,40.8 0.2,40.8 0.2,40.8 	"/>
	<polygon class="st0" points="0.2,40.8 0.2,40.8 0.2,40.8 0.2,40.8 0,40.6 0,42.4 0.9,41.5 	"/>
</g>
</svg>
