<?xml version="1.0" encoding="utf-8"?>
<!-- Generator: Adobe Illustrator 27.7.0, SVG Export Plug-In . SVG Version: 6.00 Build 0)  -->
<svg version="1.1" id="Layer_1" xmlns="http://www.w3.org/2000/svg" xmlns:xlink="http://www.w3.org/1999/xlink" x="0px" y="0px"
	 viewBox="0 0 55.2 55.1" style="enable-background:new 0 0 55.2 55.1;" xml:space="preserve">
<style type="text/css">
	.st0{fill:#FFFFFF;}
	.st1{fill:none;}
</style>
<g>
	<path class="st0" d="M0,18.6c0.3-0.1,0.6-0.2,0.9-0.2h7.3c0.6,0,1.1,0.2,1.5,0.6c0.4,0.4,0.6,0.9,0.6,1.5v7.1v7.1
		c0,0.6-0.2,1.1-0.6,1.5c-0.4,0.4-0.9,0.6-1.5,0.6H0.9c-0.3,0-0.6-0.1-0.9-0.2v1.5c0.3,0.1,0.6,0.1,0.9,0.1h7.3c1,0,1.9-0.4,2.5-1
		c0.6-0.6,1-1.5,1-2.5v-7.1v-7.1c0-1-0.4-1.9-1-2.5c-0.6-0.6-1.5-1-2.5-1H0.9c-0.3,0-0.6,0-0.9,0.1V18.6z"/>
	<path class="st0" d="M54.3,17H47c-1,0-1.9,0.4-2.5,1c-0.6,0.6-1,1.5-1,2.5v7.1v7.1c0,1,0.4,1.9,1,2.5c0.6,0.6,1.5,1,2.5,1h7.3
		c0.3,0,0.6,0,0.9-0.1h0v-1.5h0c-0.3,0.1-0.6,0.2-0.9,0.2H47c-0.6,0-1.1-0.2-1.5-0.6c-0.4-0.4-0.6-0.9-0.6-1.5v-7.1v-7.1
		c0-0.6,0.2-1.1,0.6-1.5c0.4-0.4,0.9-0.6,1.5-0.6h7.3c0.3,0,0.6,0.1,0.9,0.2h0v-1.5h0C54.9,17,54.6,17,54.3,17z"/>
</g>
<g>
	<path class="st1" d="M33.3,41.4L33.3,41.4C33.3,41.4,33.3,41.4,33.3,41.4L33.3,41.4z"/>
	<path class="st1" d="M21.8,41.4C21.8,41.4,21.8,41.4,21.8,41.4L21.8,41.4L21.8,41.4z"/>
	<path class="st1" d="M33.3,13.7L33.3,13.7L33.3,13.7C33.3,13.7,33.3,13.7,33.3,13.7z"/>
	<path class="st0" d="M33.8,12.6c0.4-0.4,0.9-0.6,1.5-0.6h15.3c1,0,1.9-0.4,2.5-1c0.6-0.6,0.9-1.3,1-2.2c0.4,0,0.8-0.1,1.1-0.2V6.8
		c-0.3,0.3-0.6,0.3-1,0.4V1.2c0-0.4-0.1-0.8-0.2-1.2h-1.6c0.2,0.3,0.4,0.8,0.4,1.2v6.2h-6.3c-0.6,0-1.1-0.2-1.5-0.6
		c-0.4-0.4-0.6-0.9-0.6-1.5V0h-1.4v5.3c0,1,0.4,1.9,1,2.5c0.6,0.6,1.5,1,2.5,1h6.2c-0.1,0.4-0.2,0.8-0.5,1.1
		c-0.4,0.4-0.9,0.6-1.5,0.6H38.7V4c0-1-0.4-1.9-1-2.5c-0.7-0.6-1.5-1-2.5-1h-7.3c-0.1,0-0.2,0-0.3,0c-0.1,0-0.2,0-0.3,0H20
		c-1,0-1.9,0.4-2.5,1c-0.6,0.6-1,1.5-1,2.5v6.6H4.6c-0.6,0-1.1-0.2-1.5-0.6C2.8,9.7,2.7,9.3,2.6,8.9h6.1c1,0,1.9-0.4,2.5-1
		c0.6-0.6,1-1.5,1-2.5V0h-1.4v5.3c0,0.6-0.2,1.1-0.6,1.5C9.9,7.2,9.3,7.4,8.7,7.4H2.4V1.2c0-0.4,0.1-0.9,0.4-1.2H1.2
		C1.1,0.4,1,0.8,1,1.2v6.1C0.6,7.2,0.3,7.1,0,6.8v1.7c0.3,0.1,0.7,0.2,1.1,0.2c0.1,0.9,0.4,1.6,1,2.2c0.6,0.6,1.5,1,2.5,1h15.3
		c0.6,0,1.1,0.2,1.5,0.6c0.3,0.3,0.4,0.7,0.5,1.1v27.7h0c0,0,0,0,0,0c-0.1,0.4-0.2,0.8-0.5,1.1c-0.4,0.4-0.9,0.6-1.5,0.6H4.6
		c-1,0-1.9,0.4-2.5,1.1c-0.6,0.6-0.9,1.3-1,2.2c-0.4,0-0.7,0.1-1.1,0.2v1.7C0.3,48,0.6,48,1,47.9V54c0,0.4,0.1,0.8,0.2,1.2h1.6
		c-0.2-0.3-0.4-0.8-0.4-1.2v-6.2h6.3c0.6,0,1.1,0.2,1.5,0.6s0.6,0.9,0.6,1.5v5.3h1.4v-5.3c0-1-0.4-1.9-1-2.5c-0.7-0.6-1.5-1-2.5-1
		H2.6c0.1-0.4,0.2-0.8,0.5-1.1c0.4-0.4,0.9-0.6,1.5-0.6h11.9v6.6c0,1,0.4,1.9,1,2.5c0.6,0.6,1.5,1,2.5,1h7.3c0.1,0,0.2,0,0.3,0
		c0.1,0,0.2,0,0.3,0h7.3c1,0,1.9-0.4,2.5-1c0.6-0.7,1-1.5,1-2.5v-6.6h11.9c0.6,0,1.1,0.2,1.5,0.6c0.3,0.3,0.4,0.7,0.5,1.1h-6.2
		c-1,0-1.9,0.4-2.5,1c-0.6,0.6-1,1.5-1,2.5v5.3h1.4v-5.3c0-0.6,0.2-1.1,0.6-1.5s0.9-0.6,1.5-0.6h6.3V54c0,0.4-0.1,0.9-0.4,1.2H54
		c0.1-0.4,0.2-0.8,0.2-1.2v-6.1c0.4,0.1,0.8,0.2,1,0.4v-1.7c-0.3-0.2-0.7-0.2-1.1-0.2c-0.1-0.8-0.4-1.6-1-2.2
		c-0.6-0.7-1.5-1.1-2.5-1.1H35.3c-0.6,0-1.1-0.2-1.5-0.6c-0.3-0.3-0.4-0.7-0.4-1.1c0,0,0,0,0,0h0V13.7h0c0,0,0,0,0,0
		C33.4,13.3,33.5,12.9,33.8,12.6z M32.8,11.6c-0.6,0.6-0.9,1.3-1,2.2c0,0,0,0,0,0v27.5c0,0,0,0,0,0c0.1,0.8,0.4,1.6,1,2.2
		c0.6,0.7,1.5,1,2.5,1h2v6.6c0,0.6-0.2,1.1-0.6,1.5c-0.4,0.4-0.9,0.6-1.5,0.6h-7.3c-0.1,0-0.2,0-0.3,0c-0.1,0-0.2,0-0.3,0H20
		c-0.6,0-1.1-0.2-1.5-0.6c-0.4-0.4-0.6-0.9-0.6-1.5v-6.6h2c1,0,1.9-0.4,2.5-1c0.6-0.6,0.9-1.3,1-2.2c0,0,0,0,0,0V13.8c0,0,0,0,0,0
		c-0.1-0.8-0.4-1.6-1-2.2c-0.2-0.2-0.3-0.3-0.5-0.4c-0.6-0.4-1.2-0.6-2-0.6h-2V4c0-0.6,0.2-1.1,0.6-1.5c0.4-0.4,0.9-0.6,1.5-0.6h7.3
		c0.1,0,0.2,0,0.3,0c0.1,0,0.2,0,0.3,0h7.3c0.6,0,1.1,0.2,1.5,0.6C37,2.8,37.3,3.4,37.3,4v6.6h-2c-0.7,0-1.4,0.2-1.9,0.6
		C33.1,11.3,33,11.5,32.8,11.6z"/>
</g>
</svg>
