<?xml version="1.0" encoding="utf-8"?>
<!-- Generator: Adobe Illustrator 27.7.0, SVG Export Plug-In . SVG Version: 6.00 Build 0)  -->
<svg version="1.1" id="Layer_1" xmlns="http://www.w3.org/2000/svg" xmlns:xlink="http://www.w3.org/1999/xlink" x="0px" y="0px"
	 viewBox="0 0 55.3 54.8" style="enable-background:new 0 0 55.3 54.8;" xml:space="preserve">
<style type="text/css">
	.st0{fill:#FFFFFF;}
</style>
<g>
	<path class="st0" d="M0,18.6c0.3-0.1,0.6-0.2,0.9-0.2h7.3c0.6,0,1.1,0.2,1.5,0.6s0.6,0.9,0.6,1.5v7.1v7.1c0,0.6-0.2,1.1-0.6,1.5
		c-0.4,0.4-0.9,0.6-1.5,0.6H0.9c-0.3,0-0.6-0.1-0.9-0.2v1.5c0.3,0.1,0.6,0.1,0.9,0.1h7.3c1,0,1.9-0.4,2.5-1s1-1.5,1-2.5v-7.1v-7.1
		c0-1-0.4-1.9-1-2.5s-1.5-1-2.5-1H0.9c-0.3,0-0.6,0-0.9,0.1V18.6z"/>
	<path class="st0" d="M54.3,17h-7.2c-1,0-1.9,0.4-2.5,1s-1,1.5-1,2.5v7.1v7.1c0,1,0.4,1.9,1,2.5s1.5,1,2.5,1h7.3
		c0.3,0,0.6,0,0.9-0.1l0,0v-1.5l0,0c-0.3,0.1-0.6,0.2-0.9,0.2h-7.3c-0.6,0-1.1-0.2-1.5-0.6S45,35.3,45,34.7v-7.1v-7.1
		c0-0.6,0.2-1.1,0.6-1.5c0.4-0.4,0.9-0.6,1.5-0.6h7.3c0.3,0,0.6,0.1,0.9,0.2l0,0v-1.5l0,0C54.9,17,54.6,17,54.3,17z"/>
	<path class="st0" d="M54.2,7.3V1.2c0-0.4-0.1-0.8-0.2-1.2h-1.6c0.2,0.3,0.4,0.8,0.4,1.2v6.3h-6.3c-0.6,0-1.1-0.2-1.5-0.6
		S44.4,6,44.4,5.4V0.1H43v5.3c0,1,0.4,1.9,1,2.5s1.5,1,2.5,1h6.1c-0.1,0.4-0.2,0.8-0.5,1.1c-0.4,0.4-0.9,0.6-1.5,0.6H43l0,0h-4.3V4
		c0-1-0.4-1.9-1-2.5s-1.5-1-2.5-1h-7.3c-0.1,0-0.2,0-0.3,0s-0.2,0-0.3,0h-7.2c-1,0-1.9,0.4-2.5,1s-1,1.5-1,2.5v6.6h-4.3l0,0H4.7
		c-0.6,0-1.1-0.2-1.5-0.6C2.9,9.7,2.8,9.3,2.7,8.9h6.1c1,0,1.9-0.4,2.5-1s1-1.5,1-2.5V0.1h-1.4v5.3c0,0.6-0.2,1.1-0.6,1.5
		C9.9,7.3,9.4,7.5,8.8,7.5H2.5V1.2c0-0.4,0.1-0.9,0.4-1.2H1.3C1.2,0.4,1.1,0.8,1.1,1.2v6.1c-0.4-0.1-0.7-0.2-1-0.4v1.7
		c0.3,0.1,0.7,0.2,1.1,0.2c0.1,0.8,0.4,1.6,1,2.2s1.5,1,2.5,1h7.6l0,0h7.6c0.6,0,1.1,0.2,1.5,0.6c0.3,0.3,0.4,0.7,0.5,1.1h-6.1
		c-1,0-1.9,0.4-2.5,1s-1,1.5-1,2.5v7.7h0.1h1.4h6.3c1,0,1.9-0.4,2.5-1s1-1.5,1-2.5v-6.1c0.4,0.1,0.8,0.2,1,0.4
		c0.4,0.4,0.6,0.9,0.6,1.5v5.2v2.4v2.6V30v2.4v5.2c0,0.6-0.2,1.1-0.6,1.5c-0.3,0.3-0.7,0.3-1,0.4v-6.1c0-1-0.4-1.9-1-2.5
		s-1.5-1-2.5-1h-6.3h-1.4h-0.1v7.7c0,1,0.4,1.9,1,2.5s1.5,1,2.5,1h6.1c-0.1,0.4-0.2,0.8-0.5,1.1c-0.4,0.4-0.9,0.6-1.5,0.6h-7.6l0,0
		H4.7c-1,0-1.9,0.4-2.5,1s-0.9,1.3-1,2.2c-0.4,0-0.7,0.1-1.1,0.2v1.7c0.3-0.3,0.6-0.3,1-0.4v6.1c0,0.4,0.1,0.8,0.2,1.2h1.6
		c-0.2-0.3-0.4-0.8-0.4-1.2v-6.2h6.3c0.6,0,1.1,0.2,1.5,0.6s0.6,0.9,0.6,1.5v5.3h1.4v-5.3c0-1-0.4-1.9-1-2.5s-1.5-1-2.5-1H2.7
		c0.1-0.4,0.2-0.8,0.5-1.1c0.4-0.4,0.9-0.6,1.5-0.6h7.6l0,0h4.3v6.6c0,1,0.4,1.9,1,2.5s1.5,1,2.5,1h7.3c0.1,0,0.2,0,0.3,0
		s0.2,0,0.3,0h7.3c1,0,1.9-0.4,2.5-1s1-1.5,1-2.5v-6.6h4.3l0,0h7.6c0.6,0,1.1,0.2,1.5,0.6c0.3,0.3,0.4,0.7,0.5,1.1h-6.1
		c-1,0-1.9,0.4-2.5,1s-1,1.5-1,2.5v5.3h1.4v-5.3c0-0.6,0.2-1.1,0.6-1.5c0.4-0.4,0.9-0.6,1.5-0.6h6.3v6.2c0,0.4-0.1,0.8-0.4,1.2h1.6
		c0.1-0.4,0.2-0.8,0.2-1.2v-6.1c0.4,0.1,0.7,0.2,1,0.4v-1.7C55,46.1,54.6,46,54.2,46c-0.1-0.8-0.4-1.6-1-2.2s-1.5-1-2.5-1h-7.6l0,0
		h-7.6c-0.6,0-1.1-0.2-1.5-0.6c-0.3-0.3-0.4-0.7-0.5-1.1h6.1c1,0,1.9-0.4,2.5-1s1-1.5,1-2.5v-7.7H43h-1.4h-6.3c-1,0-1.9,0.4-2.5,1
		s-1,1.5-1,2.5v6.1c-0.4-0.1-0.8-0.2-1-0.4c-0.4-0.4-0.6-0.9-0.6-1.5v-5.2V30v-2.6v-2.6v-2.4v-5.2c0-0.6,0.2-1.1,0.6-1.5
		c0.3-0.3,0.7-0.3,1-0.4v6.1c0,1,0.4,1.9,1,2.5s1.5,1,2.5,1h6.3H43h0.1v-7.7c0-1-0.4-1.9-1-2.5s-1.5-1-2.5-1h-6.1
		c0.1-0.4,0.2-0.8,0.5-1.1c0.4-0.4,0.9-0.6,1.5-0.6h7.6l0,0h7.6c1,0,1.9-0.4,2.5-1s0.9-1.3,1-2.2c0.4,0,0.7-0.1,1.1-0.2l0,0V6.9l0,0
		C54.9,7.1,54.6,7.2,54.2,7.3z M22,21.4c0,0.6-0.2,1.1-0.6,1.5c-0.4,0.4-0.9,0.6-1.5,0.6h-6.3v-6.2c0-0.6,0.2-1.1,0.6-1.5
		c0.4-0.4,0.9-0.6,1.5-0.6H22V21.4z M15.7,40c-0.6,0-1.1-0.2-1.5-0.6s-0.6-0.9-0.6-1.5v-6.2h6.3c0.6,0,1.1,0.2,1.5,0.6
		s0.6,0.9,0.6,1.5V40H15.7z M33.2,33.8c0-0.6,0.2-1.1,0.6-1.5c0.4-0.4,0.9-0.6,1.5-0.6h6.3v6.2c0,0.6-0.2,1.1-0.6,1.5
		c-0.4,0.4-0.9,0.6-1.5,0.6h-6.3V33.8z M39.5,15.2c0.6,0,1.1,0.2,1.5,0.6s0.6,0.9,0.6,1.5v6.2h-6.3c-0.6,0-1.1-0.2-1.5-0.6
		s-0.6-0.9-0.6-1.5v-6.2H39.5z M37.3,10.6h-2c-1,0-1.9,0.4-2.5,1s-0.9,1.3-1,2.2c-0.8,0.1-1.6,0.4-2.1,1c-0.6,0.6-1,1.5-1,2.5v5.2
		v2.4v2.6v2.6v2.4v5.2c0,1,0.4,1.9,1,2.5c0.5,0.6,1.3,0.9,2.1,1c0.1,0.8,0.4,1.6,1,2.2s1.5,1,2.5,1h2V51c0,0.6-0.2,1.1-0.6,1.5
		c-0.4,0.4-0.9,0.6-1.5,0.6h-7.3c-0.1,0-0.2,0-0.3,0s-0.2,0-0.3,0h-7.2c-0.6,0-1.1-0.2-1.5-0.6S18,51.6,18,51v-6.6h2
		c1,0,1.9-0.4,2.5-1s0.9-1.3,1-2.2c0.8-0.1,1.6-0.4,2.1-1c0.6-0.6,1-1.5,1-2.5v-5.2v-2.4v-2.6v-2.6v-2.4v-5.2c0-1-0.4-1.9-1-2.5
		s-1.3-0.9-2.1-1c-0.1-0.8-0.4-1.6-1-2.2s-1.5-1-2.5-1h-2V4c0-0.6,0.2-1.1,0.6-1.5c0.4-0.4,0.9-0.6,1.5-0.6h7.3c0.1,0,0.2,0,0.3,0
		s0.2,0,0.3,0h7.3c0.6,0,1.1,0.2,1.5,0.6s0.6,0.9,0.6,1.5v6.6H37.3z"/>
</g>
</svg>
