<!DOCTYPE svg PUBLIC "-//W3C//DTD SVG 1.1//EN" "http://www.w3.org/Graphics/SVG/1.1/DTD/svg11.dtd">
<!-- Uploaded to: SVG Repo, www.svgrepo.com, Transformed by: SVG Repo Mixer Tools -->
<svg fill="#ffc107" height="800px" width="800px" version="1.1" id="Capa_1" xmlns="http://www.w3.org/2000/svg" xmlns:xlink="http://www.w3.org/1999/xlink" viewBox="0 0 487.2 487.2" xml:space="preserve">
<g id="SVGRepo_bgCarrier" stroke-width="0"/>
<g id="SVGRepo_tracerCarrier" stroke-linecap="round" stroke-linejoin="round"/>
<g id="SVGRepo_iconCarrier"> <g> <path d="M448,77.3H39.2C17.6,77.3,0,94.9,0,116.5v254.2c0,21.6,17.6,39.2,39.2,39.2H448c21.6,0,39.2-17.6,39.2-39.2V116.5 C487.2,94.9,469.6,77.3,448,77.3z M450.4,370.7c0,1.3-1.1,2.4-2.4,2.4H39.2c-1.3,0-2.4-1.1-2.4-2.4V148.1h413.5v222.6H450.4z M75.7,306.4c1-3.6,2-7.2,3.1-10.8c1.3-4.2,2.4-4.7,6.2-2.7c6.5,3.4,13.5,5.3,20.7,6.2c4.7,0.6,9.3,0.1,13.6-1.8 c8.1-3.5,9.4-12.9,2.5-18.5c-2.3-1.9-5-3.3-7.7-4.5c-7.1-3.1-14.5-5.5-21.2-9.5c-10.9-6.5-17.8-15.4-17-28.7 c0.9-15,9.4-24.3,23.1-29.3c5.7-2.1,5.7-2,5.7-7.9c0-2,0-4,0-6c0.1-4.5,0.9-5.2,5.3-5.3c1.4,0,2.7,0,4.1,0c9.5,0,9.5,0,9.5,9.4 c0,6.7,0,6.7,6.7,7.8c5.1,0.8,10,2.3,14.7,4.4c2.6,1.1,3.6,3,2.8,5.7c-1.2,4.1-2.3,8.2-3.6,12.2c-1.2,3.8-2.5,4.4-6.1,2.6 c-7.4-3.6-15.1-5.1-23.3-4.6c-2.1,0.1-4.2,0.4-6.2,1.3c-7,3.1-8.2,10.9-2.2,15.7c3,2.4,6.5,4.2,10.1,5.7c6.2,2.6,12.5,5.1,18.4,8.3 c18.9,10.4,23.9,34.1,10.7,50.3c-4.8,5.8-11,9.8-18.3,11.8c-3.2,0.9-4.6,2.5-4.5,5.8c0.1,3.2,0,6.5,0,9.7c0,2.9-1.5,4.5-4.3,4.5 c-3.5,0.1-7,0.1-10.5,0c-3.1-0.1-4.5-1.8-4.5-4.8c0-2.4,0-4.7-0.1-7.1c-0.1-5.2-0.2-5.5-5.3-6.3c-6.4-1-12.8-2.5-18.7-5.4 C74.8,312.4,74.3,311.3,75.7,306.4z M187.6,207.9v-15.5c0-2.7,2.2-4.8,4.8-4.8h201.5c2.7,0,4.8,2.2,4.8,4.8v15.5 c0,2.7-2.2,4.8-4.8,4.8H192.4C189.7,212.8,187.6,210.6,187.6,207.9z M187.6,249.8v-15.5c0-2.7,2.2-4.8,4.8-4.8h142.2 c2.7,0,4.8,2.2,4.8,4.8v15.5c0,2.7-2.2,4.8-4.8,4.8H192.4C189.7,254.6,187.6,252.4,187.6,249.8z M187.6,291.6v-15.5 c0-2.7,2.2-4.8,4.8-4.8h201.5c2.7,0,4.8,2.2,4.8,4.8v15.5c0,2.7-2.2,4.8-4.8,4.8H192.4C189.7,296.4,187.6,294.3,187.6,291.6z M187.6,333.4v-15.5c0-2.7,2.2-4.8,4.8-4.8H222h20.6h57.5c2.7,0,4.8,2.2,4.8,4.8v15.5c0,2.7-2.2,4.8-4.8,4.8h-57.5H222h-29.6 C189.7,338.2,187.6,336.1,187.6,333.4z"/> </g> </g>
</svg>