<!DOCTYPE svg PUBLIC "-//W3C//DTD SVG 1.1//EN" "http://www.w3.org/Graphics/SVG/1.1/DTD/svg11.dtd">
<!-- Uploaded to: SVG Repo, www.svgrepo.com, Transformed by: SVG Repo Mixer Tools -->
<svg fill="#ffc107" height="256px" width="256px" version="1.1" id="Layer_1" xmlns="http://www.w3.org/2000/svg" xmlns:xlink="http://www.w3.org/1999/xlink" viewBox="0 0 501.999 501.999" xml:space="preserve" transform="rotate(0)">
<g id="SVGRepo_bgCarrier" stroke-width="0"/>
<g id="SVGRepo_tracerCarrier" stroke-linecap="round" stroke-linejoin="round" stroke="#CCCCCC" stroke-width="1.003998"> <g> <g> <g> <path d="M464.432,74.39H90.926c-20.715,0-37.568,16.853-37.568,37.568v142.333c-7.029,2.119-14.326,3.201-21.778,3.201 c-6.43,0-12.817-0.81-18.982-2.406c-2.944-0.764-6.07-0.145-8.501,1.676c-2.432,1.821-3.904,4.649-4.001,7.686 C0.032,266.455,0,268.472,0,270.444c0,63.328,31.917,121.494,85.377,155.595c1.64,1.046,3.509,1.569,5.378,1.569 s3.738-0.523,5.378-1.569c27.903-17.799,50.387-42.593,65.346-71.973h302.952c20.715,0,37.568-16.853,37.568-37.568v-204.54 C502,91.244,485.146,74.39,464.432,74.39z M146.171,339.838c-12.359,26.506-31.444,49.123-55.417,65.761 c-42.684-29.592-68.661-76.958-70.633-128.791c3.793,0.455,7.622,0.684,11.459,0.684c12.257,0,24.201-2.297,35.5-6.827 c8.227-3.298,15.884-7.683,22.857-13.082c16.663,12.896,37.07,19.908,58.355,19.908c4.397,0,8.777-0.3,13.107-0.896 C160.598,298.62,155.486,319.866,146.171,339.838z M464.432,334.065H170.229c7.493-20.314,11.282-41.65,11.282-63.622 c0-2.105-0.039-4.28-0.114-6.463c-0.106-3.066-1.614-5.914-4.091-7.725c-2.476-1.812-5.646-2.385-8.602-1.558 c-6.615,1.854-13.483,2.793-20.413,2.793c-19.202,0-37.501-7.221-51.527-20.333c-3.844-3.593-9.814-3.593-13.658,0 c-3.055,2.855-6.31,5.434-9.749,7.725V111.958c0-9.687,7.881-17.568,17.568-17.568H464.43c9.688,0,17.568,7.881,17.568,17.568 v204.539H482C482,326.184,474.119,334.065,464.432,334.065z"/> <path d="M125.929,294.457l-43.892,43.892l-19.773-19.773c-3.905-3.905-10.237-3.905-14.142,0c-3.905,3.905-3.906,10.237,0,14.142 l26.762,26.762c1.953,1.953,4.512,2.929,7.071,2.929c2.114,0,4.222-0.677,5.994-2.009l52.122-51.801 c3.905-3.905,3.905-10.237,0-14.142C136.166,290.552,129.834,290.552,125.929,294.457z"/> <path d="M140.273,202.45h-20c-5.523,0-10,4.477-10,10c0,5.523,4.477,10,10,10h20c5.523,0,10-4.477,10-10 C150.273,206.926,145.796,202.45,140.273,202.45z"/> <path d="M384.302,212.45c0-5.523-4.478-10-10-10h-39.005c-5.522,0-10,4.477-10,10c0,5.523,4.478,10,10,10h39.005 C379.824,222.45,384.302,217.973,384.302,212.45z"/> <path d="M296.292,202.45h-39.005c-5.523,0-10,4.477-10,10c0,5.523,4.477,10,10,10h39.005c5.522,0,10-4.477,10-10 C306.292,206.926,301.814,202.45,296.292,202.45z"/> <path d="M228.283,212.45c0-5.523-4.477-10-10-10h-39.005c-5.523,0-10,4.477-10,10c0,5.523,4.477,10,10,10h39.005 C223.806,222.45,228.283,217.973,228.283,212.45z"/> <path d="M413.307,222.45h20c5.522,0,10-4.477,10-10c0-5.523-4.478-10-10-10h-20c-5.522,0-10,4.477-10,10 C403.307,217.972,407.784,222.45,413.307,222.45z"/> <path d="M262.561,282.486h-53.357c-5.523,0-10,4.477-10,10s4.477,10,10,10h53.357c5.522,0,10-4.477,10-10 S268.083,282.486,262.561,282.486z"/> <path d="M187.188,172.432v-40.018c0-5.523-4.477-10-10-10h-56.025c-5.523,0-10,4.477-10,10v40.018c0,5.523,4.477,10,10,10h56.025 C182.711,182.432,187.188,177.955,187.188,172.432z M167.188,162.432h-36.025v-20.018h36.025V162.432z"/> <path d="M426.637,237.132c-6.755,0-13.251,1.597-19.12,4.654c-5.869-3.057-12.365-4.654-19.12-4.654 c-22.922,0-41.57,18.648-41.57,41.57s18.648,41.57,41.57,41.57c6.755,0,13.251-1.597,19.12-4.653 c5.869,3.056,12.365,4.653,19.12,4.653c22.922,0,41.57-18.648,41.57-41.57S449.559,237.132,426.637,237.132z M390.976,300.121 c-0.85,0.101-1.71,0.151-2.579,0.151c-11.894,0-21.57-9.676-21.57-21.57c0-11.894,9.677-21.57,21.57-21.57 c0.869,0,1.729,0.051,2.579,0.151c-3.835,6.363-5.909,13.714-5.909,21.419S387.141,293.758,390.976,300.121z M407.516,288.698 c-1.59-3.034-2.45-6.441-2.45-9.996s0.86-6.962,2.45-9.996c1.59,3.035,2.45,6.441,2.45,9.996S409.106,285.664,407.516,288.698z M426.637,300.272c-0.869,0-1.729-0.051-2.579-0.151c3.835-6.363,5.909-13.713,5.909-21.418c0-7.705-2.074-15.056-5.909-21.419 c0.85-0.101,1.71-0.151,2.579-0.151c11.894,0,21.57,9.676,21.57,21.57C448.207,290.596,438.53,300.272,426.637,300.272z"/> </g> </g> </g> </g>
<g id="SVGRepo_iconCarrier"> <g> <g> <g> <path d="M464.432,74.39H90.926c-20.715,0-37.568,16.853-37.568,37.568v142.333c-7.029,2.119-14.326,3.201-21.778,3.201 c-6.43,0-12.817-0.81-18.982-2.406c-2.944-0.764-6.07-0.145-8.501,1.676c-2.432,1.821-3.904,4.649-4.001,7.686 C0.032,266.455,0,268.472,0,270.444c0,63.328,31.917,121.494,85.377,155.595c1.64,1.046,3.509,1.569,5.378,1.569 s3.738-0.523,5.378-1.569c27.903-17.799,50.387-42.593,65.346-71.973h302.952c20.715,0,37.568-16.853,37.568-37.568v-204.54 C502,91.244,485.146,74.39,464.432,74.39z M146.171,339.838c-12.359,26.506-31.444,49.123-55.417,65.761 c-42.684-29.592-68.661-76.958-70.633-128.791c3.793,0.455,7.622,0.684,11.459,0.684c12.257,0,24.201-2.297,35.5-6.827 c8.227-3.298,15.884-7.683,22.857-13.082c16.663,12.896,37.07,19.908,58.355,19.908c4.397,0,8.777-0.3,13.107-0.896 C160.598,298.62,155.486,319.866,146.171,339.838z M464.432,334.065H170.229c7.493-20.314,11.282-41.65,11.282-63.622 c0-2.105-0.039-4.28-0.114-6.463c-0.106-3.066-1.614-5.914-4.091-7.725c-2.476-1.812-5.646-2.385-8.602-1.558 c-6.615,1.854-13.483,2.793-20.413,2.793c-19.202,0-37.501-7.221-51.527-20.333c-3.844-3.593-9.814-3.593-13.658,0 c-3.055,2.855-6.31,5.434-9.749,7.725V111.958c0-9.687,7.881-17.568,17.568-17.568H464.43c9.688,0,17.568,7.881,17.568,17.568 v204.539H482C482,326.184,474.119,334.065,464.432,334.065z"/> <path d="M125.929,294.457l-43.892,43.892l-19.773-19.773c-3.905-3.905-10.237-3.905-14.142,0c-3.905,3.905-3.906,10.237,0,14.142 l26.762,26.762c1.953,1.953,4.512,2.929,7.071,2.929c2.114,0,4.222-0.677,5.994-2.009l52.122-51.801 c3.905-3.905,3.905-10.237,0-14.142C136.166,290.552,129.834,290.552,125.929,294.457z"/> <path d="M140.273,202.45h-20c-5.523,0-10,4.477-10,10c0,5.523,4.477,10,10,10h20c5.523,0,10-4.477,10-10 C150.273,206.926,145.796,202.45,140.273,202.45z"/> <path d="M384.302,212.45c0-5.523-4.478-10-10-10h-39.005c-5.522,0-10,4.477-10,10c0,5.523,4.478,10,10,10h39.005 C379.824,222.45,384.302,217.973,384.302,212.45z"/> <path d="M296.292,202.45h-39.005c-5.523,0-10,4.477-10,10c0,5.523,4.477,10,10,10h39.005c5.522,0,10-4.477,10-10 C306.292,206.926,301.814,202.45,296.292,202.45z"/> <path d="M228.283,212.45c0-5.523-4.477-10-10-10h-39.005c-5.523,0-10,4.477-10,10c0,5.523,4.477,10,10,10h39.005 C223.806,222.45,228.283,217.973,228.283,212.45z"/> <path d="M413.307,222.45h20c5.522,0,10-4.477,10-10c0-5.523-4.478-10-10-10h-20c-5.522,0-10,4.477-10,10 C403.307,217.972,407.784,222.45,413.307,222.45z"/> <path d="M262.561,282.486h-53.357c-5.523,0-10,4.477-10,10s4.477,10,10,10h53.357c5.522,0,10-4.477,10-10 S268.083,282.486,262.561,282.486z"/> <path d="M187.188,172.432v-40.018c0-5.523-4.477-10-10-10h-56.025c-5.523,0-10,4.477-10,10v40.018c0,5.523,4.477,10,10,10h56.025 C182.711,182.432,187.188,177.955,187.188,172.432z M167.188,162.432h-36.025v-20.018h36.025V162.432z"/> <path d="M426.637,237.132c-6.755,0-13.251,1.597-19.12,4.654c-5.869-3.057-12.365-4.654-19.12-4.654 c-22.922,0-41.57,18.648-41.57,41.57s18.648,41.57,41.57,41.57c6.755,0,13.251-1.597,19.12-4.653 c5.869,3.056,12.365,4.653,19.12,4.653c22.922,0,41.57-18.648,41.57-41.57S449.559,237.132,426.637,237.132z M390.976,300.121 c-0.85,0.101-1.71,0.151-2.579,0.151c-11.894,0-21.57-9.676-21.57-21.57c0-11.894,9.677-21.57,21.57-21.57 c0.869,0,1.729,0.051,2.579,0.151c-3.835,6.363-5.909,13.714-5.909,21.419S387.141,293.758,390.976,300.121z M407.516,288.698 c-1.59-3.034-2.45-6.441-2.45-9.996s0.86-6.962,2.45-9.996c1.59,3.035,2.45,6.441,2.45,9.996S409.106,285.664,407.516,288.698z M426.637,300.272c-0.869,0-1.729-0.051-2.579-0.151c3.835-6.363,5.909-13.713,5.909-21.418c0-7.705-2.074-15.056-5.909-21.419 c0.85-0.101,1.71-0.151,2.579-0.151c11.894,0,21.57,9.676,21.57,21.57C448.207,290.596,438.53,300.272,426.637,300.272z"/> </g> </g> </g> </g>
</svg>