<!DOCTYPE svg PUBLIC "-//W3C//DTD SVG 1.1//EN" "http://www.w3.org/Graphics/SVG/1.1/DTD/svg11.dtd">
<!-- Uploaded to: SVG Repo, www.svgrepo.com, Transformed by: SVG Repo Mixer Tools -->
<svg width="800px" height="800px" viewBox="0 0 512 512" id="Layer_1" version="1.1" xml:space="preserve" xmlns="http://www.w3.org/2000/svg" xmlns:xlink="http://www.w3.org/1999/xlink" fill="#000000">
<g id="SVGRepo_bgCarrier" stroke-width="0"/>
<g id="SVGRepo_tracerCarrier" stroke-linecap="round" stroke-linejoin="round"/>
<g id="SVGRepo_iconCarrier"> <style type="text/css"> .st0{fill:#ffffff;} </style> <g> <path class="st0" d="M475.8,84.2c3.9,0,7-3.1,7-7V38c0-3.9-3.1-7-7-7H36.2c-3.9,0-7,3.1-7,7v39.2c0,3.9,3.1,7,7,7h43.6v343.7H36.2 c-3.9,0-7,3.1-7,7V474c0,3.9,3.1,7,7,7h439.7c3.9,0,7-3.1,7-7v-39.2c0-3.9-3.1-7-7-7h-43.6V84.2H475.8z M425.3,441.8h43.6V467H43.2 v-25.2h43.6c3.9,0,7-3.1,7-7V77.2c0-3.9-3.1-7-7-7H43.2V45h425.7v25.2h-43.6c-3.9,0-7,3.1-7,7v357.7 C418.3,438.7,421.4,441.8,425.3,441.8z"/> <path class="st0" d="M386.1,70.2H125.9c-3.9,0-7,3.1-7,7v357.7c0,3.9,3.1,7,7,7h260.2c3.9,0,7-3.1,7-7V77.2 C393.1,73.3,390,70.2,386.1,70.2z M282.3,326.2h17.5v44.4h-17.5V326.2z M306.8,312.2h-31.5c-3.9,0-7,3.1-7,7v22.2h-11.7v-22.2 c0-3.9-3.1-7-7-7h-31.5c-3.9,0-7,3.1-7,7v22.2h-78.2V263H151v22.2c0,3.9,3.1,7,7,7h31.5c3.9,0,7-3.1,7-7V263h11.7v22.2 c0,3.9,3.1,7,7,7h31.5c3.9,0,7-3.1,7-7V263h125.4v78.4h-65.3v-22.2C313.8,315.3,310.6,312.2,306.8,312.2z M225.1,326.2h17.5v44.4 h-17.5V326.2z M255.4,185.8h-17.5v-44.4h17.5V185.8z M230.9,199.8h31.5c3.9,0,7-3.1,7-7v-22.2h11.7v22.2c0,3.9,3.1,7,7,7h31.5 c3.9,0,7-3.1,7-7v-22.2h52.5V249H253.7v-22.2c0-3.9-3.1-7-7-7h-31.5c-3.9,0-7,3.1-7,7V249h-11.7v-22.2c0-3.9-3.1-7-7-7H158 c-3.9,0-7,3.1-7,7V249h-18.1v-78.4h91v22.2C223.9,196.7,227.1,199.8,230.9,199.8z M312.6,185.8h-17.5v-44.4h17.5V185.8z M222.2,233.8h17.5v44.4h-17.5V233.8z M165,233.8h17.5V256c0,0,0,0,0,0s0,0,0,0v22.2H165V233.8z M379.1,84.2v72.5h-52.5v-22.2 c0-3.9-3.1-7-7-7h-31.5c-3.9,0-7,3.1-7,7v22.2h-11.7v-22.2c0-3.9-3.1-7-7-7h-31.5c-3.9,0-7,3.1-7,7v22.2h-91V84.2H379.1z M132.9,427.8v-72.5h78.2v22.2c0,3.9,3.1,7,7,7h31.5c3.9,0,7-3.1,7-7v-22.2h11.7v22.2c0,3.9,3.1,7,7,7h31.5c3.9,0,7-3.1,7-7v-22.2 h65.3v72.5H132.9z"/> </g> </g>
</svg>