<?xml version="1.0" encoding="iso-8859-1"?>
<!-- Uploaded to: SVG Repo, www.svgrepo.com, Generator: SVG Repo Mixer Tools -->
<svg fill="#000000" height="800px" width="800px" version="1.1" id="Layer_1" xmlns="http://www.w3.org/2000/svg" xmlns:xlink="http://www.w3.org/1999/xlink" 
	 viewBox="0 0 512.002 512.002" xml:space="preserve">
<g>
	<g>
		<g>
			<path d="M434.107,176.162c1.92,5.939,3.575,12.083,4.915,18.227c0.87,3.994,4.403,6.724,8.329,6.724
				c0.597,0,1.22-0.06,1.826-0.196c4.608-1.007,7.526-5.547,6.528-10.155c-1.468-6.699-3.268-13.38-5.359-19.857
				c-1.442-4.471-6.221-6.938-10.743-5.487C435.114,166.86,432.657,171.673,434.107,176.162z"/>
			<path d="M423.389,150.032c1.502,2.978,4.514,4.693,7.637,4.693c1.289,0,2.603-0.29,3.831-0.904
				c4.207-2.125,5.905-7.253,3.789-11.469c-3.115-6.161-6.545-12.186-10.214-17.894c-2.552-3.968-7.834-5.12-11.793-2.577
				c-3.959,2.552-5.111,7.834-2.569,11.793C417.416,138.896,420.556,144.392,423.389,150.032z"/>
			<path d="M300.579,55.926c6.187,1.357,12.322,3.021,18.236,4.924c0.879,0.282,1.758,0.418,2.628,0.418
				c3.61,0,6.946-2.304,8.115-5.905c1.451-4.489-1.007-9.301-5.487-10.743c-6.443-2.082-13.116-3.883-19.831-5.359
				c-4.582-0.99-9.156,1.894-10.163,6.502C293.07,50.371,295.98,54.919,300.579,55.926z"/>
			<path d="M344.944,71.559c5.615,2.825,11.11,5.956,16.35,9.327c1.425,0.913,3.021,1.348,4.599,1.348
				c2.807,0,5.555-1.382,7.194-3.925c2.543-3.959,1.391-9.242-2.577-11.793c-5.734-3.678-11.75-7.117-17.886-10.206
				c-4.224-2.116-9.344-0.427-11.46,3.78C339.048,64.306,340.737,69.434,344.944,71.559z"/>
			<path d="M383.703,97.961c4.651,4.173,9.122,8.644,13.295,13.286c1.681,1.877,4.011,2.833,6.349,2.833
				c2.031,0,4.07-0.717,5.7-2.176c3.507-3.157,3.797-8.542,0.648-12.058c-4.574-5.094-9.489-10.001-14.592-14.583
				c-3.482-3.157-8.9-2.85-12.049,0.649C379.905,89.419,380.195,94.812,383.703,97.961z"/>
			<path d="M281.585,43.949c0.358-4.702-3.166-8.789-7.868-9.148c-5.82-0.444-11.793-0.666-17.715-0.666
				c-4.719,0-8.533,3.814-8.533,8.533s3.814,8.533,8.533,8.533c5.504,0,11.025,0.205,16.435,0.614
				c0.213,0.017,0.435,0.026,0.648,0.026C277.506,51.843,281.244,48.438,281.585,43.949z"/>
			<path d="M71.544,344.902c-2.125-4.207-7.262-5.897-11.469-3.78c-4.207,2.125-5.896,7.245-3.78,11.46
				c3.106,6.161,6.545,12.186,10.206,17.894c1.638,2.543,4.386,3.925,7.194,3.925c1.579,0,3.174-0.435,4.599-1.348
				c3.968-2.552,5.12-7.834,2.577-11.793C77.517,356.047,74.377,350.543,71.544,344.902z"/>
			<path d="M60.826,318.773c-1.911-5.939-3.576-12.083-4.907-18.227c-1.007-4.608-5.564-7.526-10.155-6.528
				c-4.608,1.007-7.526,5.547-6.528,10.155c1.468,6.707,3.268,13.38,5.359,19.857c1.169,3.601,4.506,5.905,8.115,5.905
				c0.87,0,1.749-0.136,2.628-0.418C59.819,328.074,62.277,323.262,60.826,318.773z"/>
			<path d="M149.994,423.379c-5.615-2.825-11.11-5.965-16.35-9.327c-3.977-2.56-9.242-1.399-11.793,2.577
				c-2.543,3.951-1.391,9.242,2.577,11.785c5.734,3.686,11.75,7.117,17.886,10.214c1.229,0.614,2.534,0.905,3.831,0.905
				c3.123,0,6.135-1.715,7.629-4.693C155.891,430.624,154.201,425.504,149.994,423.379z"/>
			<path d="M194.359,439.012c-6.187-1.365-12.322-3.021-18.244-4.932c-4.514-1.459-9.284,1.024-10.735,5.495
				c-1.451,4.48,1.007,9.301,5.487,10.743c6.443,2.082,13.107,3.883,19.823,5.359c0.623,0.128,1.237,0.196,1.843,0.196
				c3.917,0,7.45-2.714,8.329-6.699C201.868,444.567,198.959,440.019,194.359,439.012z"/>
			<path d="M111.236,396.977c-4.651-4.173-9.122-8.653-13.295-13.295c-3.157-3.507-8.559-3.806-12.049-0.649
				c-3.507,3.149-3.797,8.542-0.649,12.049c4.574,5.103,9.481,10.01,14.592,14.592c1.621,1.468,3.669,2.185,5.7,2.185
				c2.33,0,4.668-0.956,6.349-2.833C115.033,405.519,114.743,400.126,111.236,396.977z"/>
			<path d="M238.935,443.734c-5.504,0-11.025-0.205-16.435-0.614c-4.634-0.384-8.789,3.157-9.148,7.868
				c-0.358,4.693,3.166,8.789,7.868,9.148c5.82,0.444,11.793,0.666,17.715,0.666c4.719,0,8.533-3.814,8.533-8.533
				C247.469,447.549,243.654,443.734,238.935,443.734z"/>
			<path d="M119.469,0.001C53.591,0.001,0.002,53.59,0.002,119.468c0,36.075,16.072,68.465,41.43,90.388l-0.282,0.265l5.421,3.927
				c13.127,10.141,28.412,17.613,45.04,21.599c0.033,0.008,0.067,0.016,0.1,0.024c1.437,0.343,2.884,0.662,4.341,0.952
				c0.157,0.031,0.314,0.06,0.471,0.091c1.28,0.25,2.567,0.48,3.861,0.689c0.195,0.031,0.388,0.066,0.583,0.097
				c1.325,0.207,2.658,0.389,3.996,0.552c0.36,0.044,0.72,0.083,1.081,0.124c1.144,0.128,2.291,0.242,3.445,0.338
				c0.25,0.021,0.499,0.047,0.75,0.067c1.289,0.099,2.586,0.171,3.886,0.228c0.44,0.02,0.88,0.036,1.321,0.05
				c1.17,0.039,2.343,0.064,3.521,0.069c0.167,0.001,0.334,0.01,0.501,0.01c0.168,0,0.335-0.009,0.504-0.01
				c1.175-0.005,2.345-0.03,3.512-0.068c0.441-0.015,0.882-0.031,1.323-0.05c1.299-0.057,2.595-0.129,3.884-0.228
				c0.243-0.019,0.484-0.045,0.727-0.065c1.158-0.096,2.311-0.21,3.459-0.339c0.359-0.04,0.719-0.08,1.078-0.124
				c1.34-0.163,2.674-0.344,4.001-0.551c0.182-0.029,0.364-0.061,0.546-0.091c1.299-0.209,2.591-0.44,3.876-0.69
				c0.159-0.031,0.319-0.06,0.479-0.092c1.457-0.29,2.905-0.608,4.343-0.951c0.021-0.005,0.042-0.01,0.063-0.015
				c16.612-3.973,31.885-11.424,45.007-21.54l5.724-4.14l-0.315-0.277c25.259-21.921,41.258-54.246,41.258-90.24
				C238.935,53.59,185.346,0.001,119.469,0.001z M104.8,162.863l-1.946-2.364c-0.077-0.094-7.552-9.259-10.368-21.521l-0.776-3.388
				l-2.918-1.877c-0.162-0.111-0.725-0.529-0.725-1.263v-13.389c0-0.512,0.307-0.887,0.555-1.109l2.799-2.543V92.258l-0.06-1.015
				c-0.034-0.307-0.734-7.424,4.241-12.971c4.489-4.992,12.826-7.629,24.124-7.629c11.307,0,19.644,2.637,24.124,7.629
				c4.983,5.555,4.284,12.672,4.267,12.868l-0.068,24.269l2.799,2.543c0.247,0.222,0.546,0.597,0.546,1.109v13.389
				c0,0.734-0.572,1.254-1.109,1.417l-4.241,1.306l-1.365,4.224c-2.082,6.485-5.043,12.45-8.798,17.749
				c-0.896,1.263-1.724,2.338-2.458,3.174l-2.125,2.415v15.778c0,7.902,4.386,15.002,11.469,18.543l25.122,12.561
				c-29.952,16.213-67.635,16.085-97.468-0.35l23.586-12.868c6.673-3.644,10.812-10.615,10.812-18.21L104.8,162.863z
				 M184.186,198.764c-0.594-0.345-1.193-0.677-1.801-0.982l-31.991-15.992c-1.229-0.614-2.031-1.903-2.031-3.277v-9.54
				c0.469-0.614,0.956-1.28,1.451-1.98c4.045-5.709,7.364-12.023,9.882-18.807c5.385-3.328,8.764-9.19,8.764-15.735v-13.389
				c0-3.797-1.186-7.475-3.345-10.581V92.702c0.29-3.192,0.691-15.275-8.303-25.532c-7.91-9.02-20.386-13.594-37.086-13.594
				c-16.7,0-29.175,4.574-37.077,13.594c-8.994,10.257-8.585,22.34-8.294,25.54v15.77c-2.159,3.106-3.354,6.784-3.354,10.581v13.389
				c0,5.052,2.048,9.796,5.598,13.261c2.987,10.675,8.277,19.055,11.153,23.1v9.378c0,1.348-0.734,2.586-1.911,3.226l-29.892,16.307
				c-0.482,0.265-0.958,0.557-1.433,0.85c-22.849-18.796-37.445-47.276-37.445-79.104c0-56.465,45.935-102.4,102.4-102.4
				s102.4,45.935,102.4,102.4C221.869,151.405,207.17,179.97,184.186,198.764z"/>
			<path d="M412.102,210.834l34.066,34.066c0.423,0.433,0.892,0.821,1.399,1.156c0.016,0.011,0.033,0.02,0.05,0.03
				c0.215,0.14,0.436,0.272,0.664,0.393c0.046,0.025,0.095,0.044,0.141,0.068c0.199,0.101,0.401,0.198,0.609,0.283
				c0.064,0.026,0.129,0.046,0.193,0.07c0.193,0.074,0.387,0.146,0.586,0.205c0.081,0.024,0.164,0.041,0.245,0.063
				c0.184,0.049,0.367,0.099,0.555,0.136c0.12,0.024,0.242,0.037,0.363,0.055c0.151,0.023,0.301,0.051,0.455,0.066
				c0.279,0.028,0.559,0.042,0.84,0.042s0.561-0.015,0.84-0.042c0.154-0.015,0.304-0.043,0.455-0.066
				c0.121-0.019,0.242-0.031,0.363-0.055c0.188-0.037,0.372-0.087,0.555-0.136c0.082-0.022,0.164-0.039,0.245-0.063
				c0.199-0.06,0.393-0.132,0.586-0.205c0.064-0.025,0.13-0.045,0.194-0.071c0.208-0.085,0.409-0.182,0.608-0.282
				c0.047-0.024,0.095-0.044,0.142-0.068c0.228-0.121,0.449-0.252,0.664-0.393c0.016-0.011,0.034-0.019,0.05-0.03
				c0.507-0.335,0.976-0.723,1.399-1.156l34.066-34.066c3.336-3.337,3.336-8.73,0-12.066c-3.337-3.337-8.73-3.337-12.066,0
				l-20.59,20.59c-1.146-3.728-4.749-6.294-8.79-6.007c-3.253,0.248-5.939,2.281-7.169,5.067l-19.651-19.651
				c-3.337-3.337-8.73-3.337-12.066,0C408.766,202.105,408.766,207.498,412.102,210.834z"/>
			<path d="M82.835,284.101l-34.048-34.048c-0.429-0.442-0.905-0.837-1.421-1.178c-0.013-0.008-0.026-0.015-0.039-0.024
				c-0.217-0.141-0.439-0.274-0.669-0.396c-0.06-0.032-0.122-0.057-0.182-0.088c-0.185-0.092-0.37-0.182-0.562-0.261
				c-0.092-0.038-0.187-0.068-0.28-0.102c-0.163-0.06-0.325-0.122-0.493-0.173c-0.13-0.039-0.263-0.068-0.394-0.101
				c-0.134-0.033-0.266-0.071-0.402-0.098c-0.208-0.042-0.417-0.069-0.627-0.095c-0.063-0.008-0.125-0.021-0.189-0.027
				c-0.573-0.058-1.151-0.058-1.724,0c-0.04,0.004-0.079,0.013-0.119,0.017c-0.234,0.027-0.468,0.06-0.7,0.107
				c-0.11,0.022-0.216,0.053-0.324,0.079c-0.159,0.038-0.319,0.074-0.476,0.122c-0.136,0.041-0.267,0.092-0.4,0.14
				c-0.126,0.045-0.253,0.086-0.376,0.138c-0.153,0.063-0.299,0.136-0.447,0.208c-0.1,0.048-0.201,0.092-0.299,0.144
				c-0.178,0.095-0.348,0.2-0.518,0.307c-0.063,0.04-0.128,0.074-0.19,0.115c-0.495,0.328-0.953,0.706-1.368,1.128L2.502,284.101
				c-3.336,3.337-3.336,8.73,0,12.066c1.664,1.664,3.849,2.5,6.033,2.5c2.185,0,4.369-0.836,6.033-2.5l20.591-20.591
				c1.079,3.535,4.351,6.034,8.142,6.034c0.213,0,0.435-0.008,0.648-0.026c3.252-0.248,5.939-2.281,7.169-5.066l19.65,19.65
				c1.664,1.664,3.849,2.5,6.033,2.5c2.185,0,4.369-0.836,6.033-2.5C86.172,292.831,86.172,287.438,82.835,284.101z"/>
			<path d="M392.535,273.068c-65.877,0-119.467,53.589-119.467,119.467s53.589,119.467,119.467,119.467
				s119.467-53.589,119.467-119.467S458.413,273.068,392.535,273.068z M392.535,494.934c-56.465,0-102.4-45.935-102.4-102.4
				c0-56.465,45.935-102.4,102.4-102.4c56.465,0,102.4,45.935,102.4,102.4C494.935,448.999,449.001,494.934,392.535,494.934z"/>
			<path d="M401.069,324.174v-8.439c0-4.719-3.814-8.533-8.533-8.533c-4.719,0-8.533,3.814-8.533,8.533v8.452
				c-9.31,1.896-17.793,6.852-24.047,14.249c-5.222,6.161-7.62,14.046-6.775,22.204c0.862,8.354,5.163,16.102,11.802,21.274
				l19.021,14.795v46.508c-9.931-3.523-17.067-13.009-17.067-24.132c0-4.719-3.814-8.533-8.533-8.533s-8.533,3.814-8.533,8.533
				c0,20.605,14.682,37.844,34.133,41.808v8.442c0,4.719,3.814,8.533,8.533,8.533c4.719,0,8.533-3.814,8.533-8.533v-8.456
				c9.31-1.896,17.793-6.852,24.047-14.249c5.222-6.17,7.629-14.063,6.775-22.229c-0.87-8.337-5.171-16.094-11.802-21.239
				l-19.021-14.798V341.85c9.931,3.523,17.067,13.009,17.067,24.132c0,4.719,3.814,8.533,8.533,8.533s8.533-3.814,8.533-8.533
				C435.202,345.384,420.52,328.139,401.069,324.174z M409.611,416.627c2.987,2.313,4.915,5.803,5.308,9.549
				c0.358,3.49-0.64,6.844-2.833,9.438c-2.972,3.513-6.783,6.108-11.017,7.604v-33.234L409.611,416.627z M375.46,368.439
				c-2.987-2.321-4.915-5.803-5.308-9.557c-0.358-3.49,0.64-6.827,2.833-9.421c2.972-3.518,6.783-6.116,11.017-7.612v33.236
				L375.46,368.439z"/>
		</g>
	</g>
</g>
</svg>