<?xml version="1.0" encoding="iso-8859-1"?>
<!-- Uploaded to: SVG Repo, www.svgrepo.com, Generator: SVG Repo Mixer Tools -->
<!DOCTYPE svg PUBLIC "-//W3C//DTD SVG 1.1//EN" "http://www.w3.org/Graphics/SVG/1.1/DTD/svg11.dtd">
<svg fill="#536dfe" version="1.1" id="Capa_1" xmlns="http://www.w3.org/2000/svg" xmlns:xlink="http://www.w3.org/1999/xlink"
	 width="800px" height="800px" viewBox="0 0 70.072 70.072"
	 xml:space="preserve">
<g>
	<g>
		<g>
			<g>
				<g>
					<g>
						<path d="M59.649,32.667c-0.684,0-1.213,0.147-1.564,0.439c-0.215,0.167-0.406,0.449-0.598,0.842h4.343
							c-0.048-0.537-0.388-0.918-1.03-1.119C60.476,32.723,60.083,32.667,59.649,32.667"/>
						<path d="M55.781,34.405h-3.878c0.027,0.419,0.244,0.718,0.657,0.895c0.415,0.178,0.844,0.265,1.3,0.265
							c0.543,0,0.967-0.105,1.277-0.316C55.448,35.043,55.667,34.76,55.781,34.405"/>
						<path d="M51.912,33.953h4.035c0.354-0.731,0.693-1.232,1.004-1.5c0.522-0.43,1.289-0.638,2.304-0.638
							c1.47,0,2.503,0.268,3.125,0.827c0.34,0.301,0.566,0.74,0.676,1.313h1.608v0.453h-1.608c-0.105,0.923-0.671,1.551-1.704,1.882
							c-0.557,0.183-1.312,0.267-2.256,0.267v-0.841c0.753-0.03,1.303-0.094,1.646-0.203c0.632-0.2,0.977-0.568,1.054-1.105h-4.505
							c-0.228,0.689-0.611,1.199-1.129,1.522c-0.536,0.33-1.264,0.494-2.196,0.494c-0.84,0-1.604-0.178-2.271-0.534
							c-0.675-0.35-1.02-0.849-1.023-1.484h-1.1V33.95h1.081c0.082-0.63,0.406-1.114,0.967-1.453
							c0.58-0.336,1.321-0.515,2.259-0.533v0.833c-0.42,0.023-0.785,0.084-1.081,0.196C52.236,33.202,51.939,33.523,51.912,33.953
							 M57.108,28.72c-5.246,0-9.498,2.445-9.498,5.466c0,3.023,4.252,5.469,9.498,5.469c5.251,0,9.503-2.445,9.503-5.469
							C66.611,31.165,62.359,28.72,57.108,28.72"/>
					</g>
				</g>
				<path d="M57.108,40.387c-4.817,0-8.777-2.064-9.402-4.738c-0.055,0.243-0.096,0.483-0.096,0.73c0,3.02,4.252,5.47,9.498,5.47
					c5.251,0,9.503-2.45,9.503-5.47c0-0.247-0.048-0.492-0.096-0.73C65.896,38.322,61.927,40.387,57.108,40.387z"/>
				<path d="M57.108,42.578c-4.817,0-8.777-2.062-9.402-4.732c-0.055,0.241-0.096,0.483-0.096,0.728c0,3.02,4.252,5.47,9.498,5.47
					c5.251,0,9.503-2.45,9.503-5.47c0-0.244-0.048-0.493-0.096-0.728C65.896,40.517,61.927,42.578,57.108,42.578z"/>
				<path d="M57.108,44.771c-4.817,0-8.777-2.064-9.402-4.733c-0.055,0.242-0.096,0.479-0.096,0.73c0,3.022,4.252,5.47,9.498,5.47
					c5.251,0,9.503-2.447,9.503-5.47c0-0.244-0.048-0.488-0.096-0.73C65.896,42.706,61.927,44.771,57.108,44.771z"/>
				<path d="M57.108,46.961c-4.817,0-8.777-2.062-9.402-4.736c-0.055,0.242-0.096,0.484-0.096,0.73c0,3.02,4.252,5.465,9.498,5.465
					c5.251,0,9.503-2.445,9.503-5.465c0-0.246-0.048-0.493-0.096-0.73C65.896,44.9,61.927,46.961,57.108,46.961z"/>
				<path d="M57.108,49.481c-4.817,0-8.777-2.064-9.402-4.733c-0.055,0.239-0.096,0.483-0.096,0.728c0,3.018,4.252,5.47,9.498,5.47
					c5.251,0,9.503-2.452,9.503-5.47c0-0.244-0.048-0.493-0.096-0.728C65.896,47.417,61.927,49.481,57.108,49.481z"/>
				<path d="M57.108,51.673c-4.817,0-8.777-2.066-9.402-4.732c-0.055,0.239-0.096,0.479-0.096,0.729
					c0,3.021,4.252,5.468,9.498,5.468c5.251,0,9.503-2.447,9.503-5.468c0-0.249-0.048-0.497-0.096-0.729
					C65.896,49.606,61.927,51.673,57.108,51.673z"/>
				<path d="M57.108,53.865c-4.817,0-8.777-2.064-9.402-4.73c-0.055,0.239-0.096,0.48-0.096,0.728c0,3.02,4.252,5.47,9.498,5.47
					c5.251,0,9.503-2.45,9.503-5.47c0-0.244-0.048-0.488-0.096-0.728C65.896,51.801,61.927,53.865,57.108,53.865z"/>
				<path d="M57.108,56.06c-4.817,0-8.777-2.064-9.402-4.735c-0.055,0.242-0.096,0.479-0.096,0.729c0,3.021,4.252,5.471,9.498,5.471
					c5.251,0,9.503-2.45,9.503-5.471c0-0.248-0.048-0.49-0.096-0.729C65.896,53.995,61.927,56.06,57.108,56.06z"/>
			</g>
			<g>
				<g>
					<g>
						<path d="M39.294,39.253c-0.685,0-1.209,0.146-1.565,0.44c-0.214,0.162-0.411,0.449-0.604,0.842h4.352
							c-0.048-0.539-0.393-0.92-1.028-1.118C40.114,39.303,39.731,39.253,39.294,39.253"/>
						<path d="M35.427,40.988h-3.882c0.028,0.418,0.243,0.719,0.661,0.896c0.411,0.176,0.845,0.263,1.304,0.263
							c0.542,0,0.966-0.103,1.275-0.314C35.088,41.623,35.309,41.34,35.427,40.988"/>
						<path d="M31.56,40.535h4.028c0.355-0.729,0.694-1.228,1.005-1.497c0.521-0.436,1.291-0.643,2.304-0.643
							c1.465,0,2.505,0.273,3.121,0.827c0.34,0.307,0.57,0.742,0.68,1.312h1.605v0.453h-1.605c-0.105,0.92-0.671,1.549-1.704,1.878
							c-0.56,0.183-1.312,0.273-2.259,0.273v-0.844c0.758-0.027,1.303-0.096,1.651-0.205c0.623-0.196,0.973-0.566,1.055-1.103
							h-4.514c-0.225,0.688-0.607,1.198-1.13,1.521c-0.535,0.329-1.264,0.493-2.197,0.493c-0.841,0-1.597-0.176-2.27-0.536
							c-0.668-0.345-1.014-0.844-1.025-1.482h-1.101v-0.452h1.089c0.077-0.629,0.399-1.115,0.966-1.455
							c0.572-0.338,1.317-0.511,2.257-0.529v0.828c-0.421,0.027-0.782,0.087-1.087,0.196C31.881,39.782,31.587,40.102,31.56,40.535
							 M36.756,35.295c-5.253,0-9.502,2.45-9.502,5.471c0,3.02,4.249,5.467,9.502,5.467c5.248,0,9.492-2.447,9.492-5.467
							C46.248,37.745,42.004,35.295,36.756,35.295"/>
					</g>
				</g>
				<path d="M36.756,46.961c-4.821,0-8.787-2.062-9.408-4.733c-0.054,0.241-0.094,0.483-0.094,0.728c0,3.02,4.249,5.47,9.502,5.47
					c5.248,0,9.492-2.45,9.492-5.47c0-0.244-0.036-0.488-0.089-0.728C45.539,44.9,41.574,46.961,36.756,46.961z"/>
				<path d="M36.756,49.159c-4.821,0-8.787-2.064-9.408-4.737c-0.054,0.244-0.094,0.483-0.094,0.729
					c0,3.022,4.249,5.468,9.502,5.468c5.248,0,9.492-2.445,9.492-5.468c0-0.246-0.036-0.49-0.089-0.729
					C45.539,47.095,41.574,49.159,36.756,49.159z"/>
				<path d="M36.756,51.35c-4.821,0-8.787-2.067-9.408-4.736c-0.054,0.24-0.094,0.481-0.094,0.729c0,3.024,4.249,5.47,9.502,5.47
					c5.248,0,9.492-2.445,9.492-5.47c0-0.244-0.036-0.488-0.089-0.729C45.539,49.289,41.574,51.35,36.756,51.35z"/>
				<path d="M36.756,53.544c-4.821,0-8.787-2.062-9.408-4.738c-0.054,0.244-0.094,0.483-0.094,0.732
					c0,3.021,4.249,5.468,9.502,5.468c5.248,0,9.492-2.447,9.492-5.468c0-0.249-0.036-0.493-0.089-0.732
					C45.539,51.481,41.574,53.544,36.756,53.544z"/>
				<path d="M36.756,56.06c-4.821,0-8.787-2.064-9.408-4.735c-0.054,0.244-0.094,0.483-0.094,0.729c0,3.019,4.249,5.468,9.502,5.468
					c5.248,0,9.492-2.449,9.492-5.468c0-0.246-0.036-0.49-0.089-0.729C45.539,53.995,41.574,56.06,36.756,56.06z"/>
			</g>
			<g>
				<g>
					<g>
						<path d="M18.936,46.153c-0.687,0-1.212,0.147-1.564,0.44c-0.21,0.161-0.409,0.444-0.598,0.841h4.349
							c-0.051-0.538-0.39-0.919-1.035-1.119C19.758,46.205,19.371,46.153,18.936,46.153"/>
						<path d="M15.068,47.889h-3.877c0.028,0.42,0.243,0.721,0.656,0.895c0.416,0.178,0.849,0.265,1.304,0.265
							c0.546,0,0.967-0.101,1.277-0.312C14.734,48.525,14.951,48.238,15.068,47.889"/>
						<path d="M11.205,47.438h4.022c0.362-0.732,0.703-1.234,1.012-1.499c0.52-0.434,1.291-0.641,2.298-0.641
							c1.471,0,2.505,0.273,3.127,0.828c0.341,0.303,0.565,0.741,0.673,1.312h1.607v0.451h-1.607
							c-0.105,0.922-0.666,1.549-1.703,1.88c-0.558,0.181-1.308,0.271-2.256,0.271v-0.842c0.758-0.027,1.303-0.096,1.654-0.205
							c0.621-0.201,0.972-0.57,1.048-1.104h-4.508c-0.227,0.687-0.608,1.2-1.129,1.521c-0.535,0.331-1.264,0.488-2.195,0.488
							c-0.843,0-1.603-0.169-2.27-0.529c-0.668-0.352-1.019-0.844-1.025-1.484H8.853v-0.45h1.086
							c0.082-0.632,0.405-1.115,0.967-1.455c0.577-0.337,1.322-0.513,2.259-0.531v0.83c-0.423,0.025-0.786,0.087-1.084,0.196
							C11.527,46.683,11.229,47.002,11.205,47.438 M16.402,42.197c-5.251,0-9.5,2.445-9.5,5.471c0,3.02,4.249,5.468,9.5,5.468
							c5.247,0,9.493-2.448,9.493-5.468C25.895,44.643,21.65,42.197,16.402,42.197"/>
					</g>
				</g>
				<path d="M16.402,53.865c-4.819,0-8.788-2.064-9.406-4.73c-0.054,0.239-0.094,0.48-0.094,0.728c0,3.02,4.249,5.47,9.497,5.47
					c5.249,0,9.495-2.45,9.495-5.47c0-0.244-0.04-0.488-0.091-0.728C25.185,51.801,21.218,53.865,16.402,53.865z"/>
				<path d="M16.402,56.06c-4.819,0-8.788-2.064-9.406-4.735c-0.054,0.244-0.094,0.483-0.094,0.729c0,3.019,4.249,5.468,9.497,5.468
					c5.249,0,9.495-2.449,9.495-5.468c0-0.246-0.04-0.49-0.091-0.729C25.185,53.995,21.218,56.06,16.402,56.06z"/>
			</g>
		</g>
		<path d="M0,37.038c1.908-2.035,4.631-3.179,7.402-3.663c1.399-0.229,2.869-0.245,4.289,0.087c1.42,0.319,2.799,0.999,3.905,2.011
			l-1.035,0.187c1.654-3.773,4.885-6.985,8.939-8.295c2.009-0.67,4.186-0.881,6.288-0.58c2.106,0.288,4.123,1.042,5.933,2.096
			l-1.393,0.42c0.925-1.922,2.142-3.745,3.692-5.281c1.542-1.531,3.427-2.783,5.512-3.465c4.206-1.429,8.795-0.705,12.555,1.18
			l-0.931,0.353c1.354-2.842,3.325-5.499,6.008-7.22c2.66-1.722,5.84-2.5,8.908-2.287c-3.063,0.181-6.065,1.151-8.41,2.999
			c-2.373,1.815-4.115,4.328-5.227,7.074l-0.265,0.637l-0.668-0.287c-3.629-1.538-7.751-2.009-11.351-0.695
			c-1.788,0.652-3.413,1.713-4.759,3.08c-1.354,1.362-2.404,3.02-3.284,4.768l-0.488,0.979l-0.907-0.552
			c-3.195-1.942-7.115-2.59-10.667-1.499c-3.546,1.074-6.6,3.732-8.315,7.132l-0.417,0.83l-0.62-0.641
			c-1.783-1.845-4.553-2.451-7.204-2.253c-1.333,0.098-2.672,0.399-3.943,0.872C2.287,35.516,1.047,36.132,0,37.038z"/>
	</g>
</g>
</svg>