<!DOCTYPE svg PUBLIC "-//W3C//DTD SVG 1.1//EN" "http://www.w3.org/Graphics/SVG/1.1/DTD/svg11.dtd">
<!-- Uploaded to: SVG Repo, www.svgrepo.com, Transformed by: SVG Repo Mixer Tools -->
<svg fill="#ffffff" version="1.1" id="Capa_1" xmlns="http://www.w3.org/2000/svg" xmlns:xlink="http://www.w3.org/1999/xlink" width="800px" height="800px" viewBox="0 0 97.758 97.758" xml:space="preserve" stroke="#ffffff">
<g id="SVGRepo_bgCarrier" stroke-width="0"/>
<g id="SVGRepo_tracerCarrier" stroke-linecap="round" stroke-linejoin="round"/>
<g id="SVGRepo_iconCarrier"> <g> <g> <path d="M23.442,64.328H7.468c-1.105,0-2.105,0.937-2.105,2.05v27.955c0,1.104,1,1.991,2.105,1.991h0.051h15.874h0.049 c1.105,0,2.057-0.887,2.057-1.991V66.378C25.498,65.264,24.547,64.328,23.442,64.328z M21.545,88.23H9.5V68.277h12.045V88.23z"/> <path d="M63.208,77.97l-7.755-6.17c0.462-1.153,0.753-2.414,0.753-3.739c0-4.492-3.042-8.298-6.995-9.58v-8.34 c0-1.668-1.346-3.02-3.011-3.02c-1.661,0-3.008,1.352-3.008,3.02v8.34c-4.145,1.274-7.065,5.082-7.065,9.58 c0,1.247,0.204,2.437,0.617,3.531l-8.329,6.338c-1.325,1.01-1.585,2.896-0.578,4.229c0.597,0.773,1.49,1.185,2.398,1.185 c0.639,0,1.28-0.199,1.824-0.614l8.392-6.387c1.616,1.113,3.57,1.762,5.679,1.762c2.029,0,3.921-0.604,5.501-1.645l7.823,6.229 c0.558,0.44,1.217,0.654,1.875,0.654c0.888,0,1.765-0.387,2.362-1.135C64.727,80.902,64.512,79.007,63.208,77.97z"/> <path d="M94.764,63.572H69.332c-1.641,0-2.969,1.242-2.969,2.883v19.844c0,1.646,1.328,3.042,2.969,3.042h10.505v3.283h-3.901 c-1.494,0-2.774,1.211-2.774,2.698v1.752h17.8v-1.752c0-1.486-1.146-2.698-2.636-2.698h-4.039v-3.283h10.478 c1.641,0,2.994-1.396,2.994-3.042V66.455C97.758,64.814,96.404,63.572,94.764,63.572z M93.301,84.891H70.773V68.027h22.527V84.891 z"/> <path d="M20.004,54.639h19.247v-4.498c0-3.838,3.117-6.96,6.949-6.96c3.833,0,6.952,3.122,6.952,6.96v4.498h18.414 c11.029,0,20.003-8.974,20.003-20.003c0-10.443-8.044-19.042-18.261-19.928c-0.694-0.06-1.332-0.415-1.748-0.974 c-3.733-5.019-9.705-8.112-16.059-8.112c-0.386,0-0.773,0.011-1.16,0.034c-0.576,0.033-1.144-0.139-1.604-0.485 c-3.871-2.911-8.556-4.487-13.463-4.487c-8.792,0-16.597,5.082-20.263,12.783c-0.351,0.738-1.049,1.251-1.858,1.367 C7.469,16.223,0,24.574,0,34.636C0,45.665,8.974,54.639,20.004,54.639z"/> </g> </g> </g>
</svg>