<?xml version="1.0" encoding="iso-8859-1"?>
<!-- Uploaded to: SVG Repo, www.svgrepo.com, Generator: SVG Repo Mixer Tools -->
<!DOCTYPE svg PUBLIC "-//W3C//DTD SVG 1.1//EN" "http://www.w3.org/Graphics/SVG/1.1/DTD/svg11.dtd">
<svg fill="#ffffff" height="18px" width="18px" version="1.1" id="Capa_1" xmlns="http://www.w3.org/2000/svg" xmlns:xlink="http://www.w3.org/1999/xlink"
	 viewBox="0 0 296.999 296.999" xml:space="preserve">
<path d="M250.923,296.999c5.627,0,10.19-4.563,10.19-10.19c0-5.628-4.563-10.19-10.19-10.19h-17.46l-0.001-31.302
	c0-31.667-17.378-60.775-48.934-81.964c-3.926-2.636-6.364-8.327-6.364-14.852s2.438-12.217,6.366-14.854
	c31.554-21.188,48.932-50.295,48.934-81.963V20.381h17.459c5.627,0,10.19-4.563,10.19-10.19S256.55,0,250.923,0H46.076
	c-5.627,0-10.19,4.563-10.19,10.19s4.563,10.19,10.19,10.19h17.459v31.303c0,31.668,17.378,60.775,48.935,81.964
	c3.925,2.636,6.363,8.326,6.363,14.853c0,6.526-2.438,12.217-6.364,14.854c-31.556,21.188-48.934,50.295-48.934,81.963v31.302
	H46.076c-5.627,0-10.19,4.563-10.19,10.19c0,5.628,4.563,10.19,10.19,10.19H250.923z"/>
</svg>
